<svg version="1.1" xmlns="http://www.w3.org/2000/svg" viewBox="0 0 1637.4980889582948 476.47048754397474" width="1637.4980889582948" height="476.47048754397474">
  <!-- svg-source:excalidraw -->
  
  <defs>
    <style class="style-fonts">
      @font-face {
        font-family: "Virgil";
        src: url("https://excalidraw.com/Virgil.woff2");
      }
      @font-face {
        font-family: "Cascadia";
        src: url("https://excalidraw.com/Cascadia.woff2");
      }
      @font-face {
        font-family: "Assistant";
        src: url("https://excalidraw.com/Assistant-Regular.woff2");
      }
    </style>
    
  </defs>
  <rect x="0" y="0" width="1637.4980889582948" height="476.47048754397474" fill="#ffffff"></rect><g stroke-linecap="round" transform="translate(10 15.39118046465228) rotate(0 394.0150411172149 225.53965353966123)"><path d="M32 0 C273.53 2.84, 515.89 2.74, 756.03 0 M32 0 C214.88 2.1, 397.84 2.36, 756.03 0 M756.03 0 C775.77 1.85, 789.5 11.96, 788.03 32 M756.03 0 C778.44 0.16, 788.69 9.71, 788.03 32 M788.03 32 C790.28 111.71, 789.28 190.43, 788.03 419.08 M788.03 32 C789.05 132.98, 789.18 233.95, 788.03 419.08 M788.03 419.08 C786.71 439.07, 777.91 452.37, 756.03 451.08 M788.03 419.08 C788.06 439.46, 779.42 451.54, 756.03 451.08 M756.03 451.08 C556.95 449.66, 357.46 450.36, 32 451.08 M756.03 451.08 C501.51 448.22, 247.01 448.4, 32 451.08 M32 451.08 C10.48 451.75, 0.77 439.27, 0 419.08 M32 451.08 C11.73 452.42, 1.76 438.49, 0 419.08 M0 419.08 C-1.41 265.04, -2.09 113.04, 0 32 M0 419.08 C0.66 340.36, 0.6 262.7, 0 32 M0 32 C-1.57 9.37, 10.46 0.23, 32 0 M0 32 C1.01 8.62, 12.09 -0.76, 32 0" stroke="#1e1e1e" stroke-width="4" fill="none"></path></g><g transform="translate(46.07683172841462 54.11103769476904) rotate(0 181.8717041015625 29.411652091041105)"><text x="181.8717041015625" y="41.223371570803195" font-family="Virgil, Segoe UI Emoji" font-size="47.05864334566574px" fill="#1e1e1e" text-anchor="middle" style="white-space: pre;" direction="ltr" dominant-baseline="alphabetic">Meine Done-List</text></g><g stroke-linecap="round" transform="translate(72.88713066065975 134.17798282367585) rotate(0 134.70265148976455 156.44143639916456)"><path d="M32 0 C109.63 -2.47, 187.47 -1.99, 237.41 0 M32 0 C78.39 0.92, 126.85 0.68, 237.41 0 M237.41 0 C259.68 0.14, 269.98 9.84, 269.41 32 M237.41 0 C256.55 2.14, 267.54 10.91, 269.41 32 M269.41 32 C267.24 114.76, 266.79 197.48, 269.41 280.88 M269.41 32 C270.49 118.9, 271.26 207.43, 269.41 280.88 M269.41 280.88 C269.43 301.39, 260.53 313.29, 237.41 312.88 M269.41 280.88 C268.83 304.2, 257.67 313.23, 237.41 312.88 M237.41 312.88 C178.77 312.56, 116.57 314.15, 32 312.88 M237.41 312.88 C178.36 313.77, 119.83 312.96, 32 312.88 M32 312.88 C11.59 314.05, 1.53 300.54, 0 280.88 M32 312.88 C12.89 314.77, 0.84 303.11, 0 280.88 M0 280.88 C-1.22 218.24, 0.16 157.12, 0 32 M0 280.88 C-1.91 230.45, -1.35 181.18, 0 32 M0 32 C0.88 8.89, 11.9 -0.66, 32 0 M0 32 C1.77 11.53, 9.3 2.26, 32 0" stroke="#1e1e1e" stroke-width="4" fill="none"></path></g><g stroke-linecap="round" transform="translate(87.63842106771062 147.3765282658096) rotate(0 107.5292414331227 30.66717507784415)"><path d="M15.33 0 C81.82 0.43, 150.19 0.02, 199.72 0 M15.33 0 C70.36 -1.05, 124.4 -1.63, 199.72 0 M199.72 0 C210.52 -0.83, 213.16 6.98, 215.06 15.33 M199.72 0 C208.08 0.24, 215.76 3.4, 215.06 15.33 M215.06 15.33 C213.6 24.97, 215.96 33.92, 215.06 46 M215.06 15.33 C215.13 28.24, 214.87 39.45, 215.06 46 M215.06 46 C216.85 56.63, 209.45 63.06, 199.72 61.33 M215.06 46 C213.99 56.57, 209.72 60.84, 199.72 61.33 M199.72 61.33 C128.05 59.34, 59.99 59.23, 15.33 61.33 M199.72 61.33 C138.84 61.38, 77.65 62.54, 15.33 61.33 M15.33 61.33 C6.64 59.66, 1.93 57.86, 0 46 M15.33 61.33 C5.95 62.23, -1.13 55.79, 0 46 M0 46 C0.03 35.91, -1.69 24.19, 0 15.33 M0 46 C0.13 37.44, 0.68 27.75, 0 15.33 M0 15.33 C1.24 4.45, 6.65 0.75, 15.33 0 M0 15.33 C-1.37 7.37, 4.63 -1.62, 15.33 0" stroke="#2f9e44" stroke-width="4" fill="none"></path></g><g stroke-linecap="round" transform="translate(85.6975431716437 219.1920846349676) rotate(0 107.5292414331227 30.66717507784415)"><path d="M15.33 0 C56.86 -0.48, 101.1 -0.85, 199.72 0 M15.33 0 C88.14 -1.12, 160.3 -1.61, 199.72 0 M199.72 0 C208.05 1.86, 213.43 5.32, 215.06 15.33 M199.72 0 C210.65 -1.71, 214.53 4.19, 215.06 15.33 M215.06 15.33 C215.88 27.05, 216.85 34.25, 215.06 46 M215.06 15.33 C215.16 22.07, 216.04 29.83, 215.06 46 M215.06 46 C214.56 57.95, 209.02 61.63, 199.72 61.33 M215.06 46 C214.83 55.73, 211.75 62.52, 199.72 61.33 M199.72 61.33 C162.31 60.88, 126.06 60.99, 15.33 61.33 M199.72 61.33 C138.65 60.86, 77.43 59.44, 15.33 61.33 M15.33 61.33 C7.04 62.97, 0.73 57, 0 46 M15.33 61.33 C3.98 60.9, 1.75 53.97, 0 46 M0 46 C-1.95 38.37, -0.3 26.67, 0 15.33 M0 46 C0.47 37.9, 0.65 31.24, 0 15.33 M0 15.33 C1.54 5.87, 3.92 1.96, 15.33 0 M0 15.33 C-0.48 3.49, 4.11 -2.07, 15.33 0" stroke="#2f9e44" stroke-width="4" fill="none"></path></g><g stroke-linecap="round" transform="translate(87.25021705645304 296.83054124272894) rotate(0 107.5292414331227 30.66717507784415)"><path d="M15.33 0 C63.12 -0.47, 112.98 2.59, 199.72 0 M15.33 0 C82.87 -0.54, 148.89 0.8, 199.72 0 M199.72 0 C208.32 0.21, 215.67 3.62, 215.06 15.33 M199.72 0 C209.42 -0.92, 215.75 3.57, 215.06 15.33 M215.06 15.33 C217.21 24.96, 213.88 37.78, 215.06 46 M215.06 15.33 C215.96 26.72, 214.81 38.55, 215.06 46 M215.06 46 C214.13 56.52, 209.75 60.9, 199.72 61.33 M215.06 46 C216.86 57.41, 207.68 59.11, 199.72 61.33 M199.72 61.33 C146.7 60.88, 93.06 61.84, 15.33 61.33 M199.72 61.33 C155.72 61.57, 111.14 63.23, 15.33 61.33 M15.33 61.33 C5.84 62.11, -0.98 55.84, 0 46 M15.33 61.33 C6.86 59.08, -0.24 55.91, 0 46 M0 46 C-0.03 33.04, -0.99 23, 0 15.33 M0 46 C0.48 36.11, 0.63 27.26, 0 15.33 M0 15.33 C-1.19 7.08, 4.7 -1.41, 15.33 0 M0 15.33 C-1 3.04, 3.5 -2.17, 15.33 0" stroke="#2f9e44" stroke-width="4" fill="none"></path></g><g stroke-linecap="round" transform="translate(84.92106406902167 372.91621734552245) rotate(0 107.5292414331227 30.66717507784415)"><path d="M15.33 0 C61.27 2.94, 104.8 2.41, 199.72 0 M15.33 0 C70.99 1.7, 127.74 0.87, 199.72 0 M199.72 0 C210.56 -1.49, 214.6 4.31, 215.06 15.33 M199.72 0 C210.64 -1.54, 216.37 6.29, 215.06 15.33 M215.06 15.33 C214.03 27.53, 216.66 38.67, 215.06 46 M215.06 15.33 C215.08 24.12, 214.87 31.34, 215.06 46 M215.06 46 C214.86 55.79, 211.51 62.36, 199.72 61.33 M215.06 46 C212.79 53.99, 209.74 61.04, 199.72 61.33 M199.72 61.33 C147.73 61.93, 93.25 62.09, 15.33 61.33 M199.72 61.33 C134.64 60.61, 67.99 60.18, 15.33 61.33 M15.33 61.33 C4.13 60.96, 1.52 54.26, 0 46 M15.33 61.33 C4.87 61.02, 1.65 53.93, 0 46 M0 46 C-1.24 34.68, 0.29 24.66, 0 15.33 M0 46 C0.58 39.9, -0.79 34.04, 0 15.33 M0 15.33 C-0.41 3.7, 4.24 -1.8, 15.33 0 M0 15.33 C-1.61 2.94, 5.38 1.4, 15.33 0" stroke="#2f9e44" stroke-width="4" fill="none"></path></g><g transform="translate(105.42449614222005 157.46947715794522) rotate(0 59.07597351074219 22.5)"><text x="59.07597351074219" y="31.536" font-family="Virgil, Segoe UI Emoji" font-size="36px" fill="#1e1e1e" text-anchor="middle" style="white-space: pre;" direction="ltr" dominant-baseline="alphabetic">M-322</text></g><g stroke-linecap="round"><g transform="translate(249.90279324553558 183.09019555974737) rotate(0 8.152035456011617 7.763849214781658)"><path d="M0.56 0.08 C3.19 2.46, 14.22 12.27, 16.65 15.03 M-0.6 -0.92 C1.82 1.55, 12.87 13.67, 15.88 16.31" stroke="#2f9e44" stroke-width="4" fill="none"></path></g></g><mask></mask><g stroke-linecap="round"><g transform="translate(268.5360171449911 195.51233297936415) rotate(0 9.704780420930092 -15.5276806595366)"><path d="M0.35 -0.5 C3.3 -5.5, 15.25 -24.86, 18.27 -29.94 M-0.93 -1.8 C2.32 -7.12, 16.76 -26.85, 20.38 -31.47" stroke="#2f9e44" stroke-width="4" fill="none"></path></g></g><mask></mask><g transform="translate(97.35963691272445 230.44966333089542) rotate(0 49.28398132324219 22.5)"><text x="49.28398132324219" y="31.536" font-family="Virgil, Segoe UI Emoji" font-size="36px" fill="#1e1e1e" text-anchor="middle" style="white-space: pre;" direction="ltr" dominant-baseline="alphabetic">M-319</text></g><g transform="translate(95.3445298512197 307.3268693080099) rotate(0 69.15597534179688 22.5)"><text x="69.15597534179688" y="31.536" font-family="Virgil, Segoe UI Emoji" font-size="36px" fill="#1e1e1e" text-anchor="middle" style="white-space: pre;" direction="ltr" dominant-baseline="alphabetic">M-306A</text></g><g transform="translate(95.03635530463362 387.2792859712936) rotate(0 57.04197692871094 22.5)"><text x="57.04197692871094" y="31.536" font-family="Virgil, Segoe UI Emoji" font-size="36px" fill="#1e1e1e" text-anchor="middle" style="white-space: pre;" direction="ltr" dominant-baseline="alphabetic">M-426</text></g><g stroke-linecap="round"><g transform="translate(241.10839579844378 256.41391079231835) rotate(0 8.152035456011617 7.763849214781658)"><path d="M-0.28 -0.48 C2.44 2.12, 13.79 11.95, 16.66 14.73 M1.78 -1.78 C4.34 1.04, 13.44 13.19, 15.91 15.84" stroke="#2f9e44" stroke-width="4" fill="none"></path></g></g><mask></mask><g stroke-linecap="round"><g transform="translate(259.7416196978984 268.83604821193876) rotate(0 9.704780420930092 -15.5276806595366)"><path d="M0.36 -0.8 C3.76 -5.8, 16.76 -25.6, 20.1 -30.44 M-0.91 1.39 C2.41 -3.91, 16 -26.74, 19.51 -32.24" stroke="#2f9e44" stroke-width="4" fill="none"></path></g></g><mask></mask><g stroke-linecap="round"><g transform="translate(247.31951781833322 328.6176534027036) rotate(0 8.152035456011617 7.763849214781658)"><path d="M0.69 0.62 C3.5 3.54, 14.79 14.38, 17.26 16.73 M-0.41 -0.11 C2.3 2.59, 13.75 12.61, 16.82 15.23" stroke="#2f9e44" stroke-width="4" fill="none"></path></g></g><mask></mask><g stroke-linecap="round"><g transform="translate(265.95274171778874 341.039790822324) rotate(0 9.704780420930092 -15.5276806595366)"><path d="M0.96 1.2 C3.95 -4.21, 15.49 -26.61, 18.62 -31.86 M0 0.78 C3.31 -4.55, 17.72 -25.24, 20.91 -30.74" stroke="#2f9e44" stroke-width="4" fill="none"></path></g></g><mask></mask><g stroke-linecap="round"><g transform="translate(249.6486708057655 404.7032939654455) rotate(0 8.152035456011617 7.763849214781658)"><path d="M-0.79 -0.8 C1.82 1.71, 13.78 13.66, 16.63 16.3 M0.99 1.39 C3.39 4.07, 13.43 12.14, 15.86 14.59" stroke="#2f9e44" stroke-width="4" fill="none"></path></g></g><mask></mask><g stroke-linecap="round"><g transform="translate(268.281894705221 417.1254313850586) rotate(0 9.704780420930092 -15.5276806595366)"><path d="M0.33 0.77 C3.7 -4.35, 16.07 -26.29, 19.43 -31.55 M-0.96 0.14 C2.32 -4.76, 14.95 -25.36, 18.49 -30.28" stroke="#2f9e44" stroke-width="4" fill="none"></path></g></g><mask></mask><g stroke-linecap="round" transform="translate(313.5662608486018 149.70568125323916) rotate(0 9.704815960984206 138.1963987409399)"><path d="M4.85 0 C7.63 0.87, 11.4 -0.24, 14.56 0 M4.85 0 C8.55 -0.12, 12.73 0.24, 14.56 0 M14.56 0 C15.82 -1.94, 19.23 1.36, 19.41 4.85 M14.56 0 C17.46 0.74, 19.2 2.39, 19.41 4.85 M19.41 4.85 C19.12 96.33, 16.89 186.91, 19.41 271.54 M19.41 4.85 C19.79 106.56, 20.78 207.8, 19.41 271.54 M19.41 271.54 C19.2 274.5, 19.22 274.4, 14.56 276.39 M19.41 271.54 C20.84 274.39, 15.99 274.9, 14.56 276.39 M14.56 276.39 C10.89 277.04, 8.62 277.18, 4.85 276.39 M14.56 276.39 C11.18 276.15, 7.79 276.05, 4.85 276.39 M4.85 276.39 C0.22 274.5, 0.24 275.99, 0 271.54 M4.85 276.39 C2.26 278.45, 1.8 276.27, 0 271.54 M0 271.54 C1.73 194.3, 1.89 116.29, 0 4.85 M0 271.54 C2.12 202.85, 2.72 132.94, 0 4.85 M0 4.85 C-0.91 1.52, 2.22 -0.21, 4.85 0 M0 4.85 C-1.91 3.49, 2.46 1.9, 4.85 0" stroke="#1e1e1e" stroke-width="4" fill="none"></path></g><g stroke-linecap="round" transform="translate(314.34266887111517 148.92927323072945) rotate(0 9.31661194972753 29.50261635415518)"><path d="M4.66 0 C7.66 -0.31, 11.08 -0.51, 13.97 0 M4.66 0 C7.96 0.26, 10.07 -0.43, 13.97 0 M13.97 0 C16.9 -0.26, 18.35 2.2, 18.63 4.66 M13.97 0 C16.87 0.78, 19.52 0.24, 18.63 4.66 M18.63 4.66 C17.25 23.79, 20.56 39.8, 18.63 54.35 M18.63 4.66 C19.15 20.52, 18.29 38.21, 18.63 54.35 M18.63 54.35 C20.07 55.46, 18.33 58.67, 13.97 59.01 M18.63 54.35 C16.83 55.96, 16.84 59.27, 13.97 59.01 M13.97 59.01 C10.46 59.78, 7.92 58.51, 4.66 59.01 M13.97 59.01 C10.06 58.52, 6.23 58.5, 4.66 59.01 M4.66 59.01 C1.79 60.22, 0.56 59.24, 0 54.35 M4.66 59.01 C3.35 60.5, -0.15 55.38, 0 54.35 M0 54.35 C0.05 36.25, -0.77 12.92, 0 4.66 M0 54.35 C0.85 34.04, -0.54 14.79, 0 4.66 M0 4.66 C0.61 1.34, -0.11 1.63, 4.66 0 M0 4.66 C0.85 3.45, 1.51 1.17, 4.66 0" stroke="#1e1e1e" stroke-width="4" fill="none"></path></g><g transform="translate(323.65928082084247 156.69314021553873) rotate(0 0.00005000000010113581 0.00004999999964638846)" stroke="none"><path fill="#1e1e1e" d="M 6.28,-6.28 Q 6.28,-6.28 7.11,-5.11 7.95,-3.94 8.37,-2.57 8.80,-1.19 8.76,0.23 8.72,1.67 8.22,3.02 7.73,4.37 6.83,5.49 5.93,6.61 4.72,7.38 3.50,8.15 2.11,8.50 0.72,8.85 -0.71,8.73 -2.14,8.61 -3.46,8.05 -4.78,7.48 -5.85,6.52 -6.92,5.56 -7.63,4.31 -8.33,3.06 -8.60,1.65 -8.87,0.23 -8.68,-1.18 -8.49,-2.60 -7.85,-3.89 -7.21,-5.18 -6.19,-6.19 -5.18,-7.21 -3.89,-7.85 -2.60,-8.49 -1.18,-8.68 0.24,-8.87 1.65,-8.60 3.06,-8.33 4.31,-7.62 5.56,-6.92 6.52,-5.85 7.48,-4.78 8.05,-3.46 8.62,-2.14 8.73,-0.70 8.85,0.72 8.50,2.11 8.15,3.51 7.38,4.72 6.61,5.93 5.48,6.83 4.36,7.73 3.02,8.22 1.67,8.72 0.23,8.76 -1.20,8.80 -2.57,8.37 -3.94,7.95 -5.11,7.11 -6.28,6.27 -6.28,6.27 -6.28,6.28 -6.94,5.43 -7.60,4.59 -8.04,3.61 -8.48,2.64 -8.67,1.58 -8.86,0.53 -8.80,-0.53 -8.73,-1.60 -8.41,-2.62 -8.09,-3.64 -7.54,-4.56 -6.99,-5.47 -6.23,-6.23 -5.47,-6.99 -4.56,-7.54 -3.64,-8.10 -2.62,-8.41 -1.60,-8.73 -0.53,-8.80 0.53,-8.86 1.59,-8.67 2.64,-8.48 3.61,-8.04 4.59,-7.60 5.43,-6.94 6.28,-6.28 6.28,-6.28 L 6.28,-6.28 Z"></path></g><g transform="translate(322.8828727983291 168.3389051526974) rotate(0 0.00005000000010113581 0.00004999999964638846)" stroke="none"><path fill="#1e1e1e" d="M 6.28,-6.28 Q 6.28,-6.28 7.11,-5.11 7.95,-3.94 8.37,-2.57 8.80,-1.19 8.76,0.23 8.72,1.67 8.22,3.02 7.73,4.37 6.83,5.49 5.93,6.61 4.72,7.38 3.50,8.15 2.11,8.50 0.72,8.85 -0.71,8.73 -2.14,8.61 -3.46,8.05 -4.78,7.48 -5.85,6.52 -6.92,5.56 -7.63,4.31 -8.33,3.06 -8.60,1.65 -8.87,0.23 -8.68,-1.18 -8.49,-2.60 -7.85,-3.89 -7.21,-5.18 -6.19,-6.19 -5.18,-7.21 -3.89,-7.85 -2.60,-8.49 -1.18,-8.68 0.24,-8.87 1.65,-8.60 3.06,-8.33 4.31,-7.62 5.56,-6.92 6.52,-5.85 7.48,-4.78 8.05,-3.46 8.62,-2.14 8.73,-0.70 8.85,0.72 8.50,2.11 8.15,3.51 7.38,4.72 6.61,5.93 5.48,6.83 4.36,7.73 3.02,8.22 1.67,8.72 0.23,8.76 -1.20,8.80 -2.57,8.37 -3.94,7.95 -5.11,7.11 -6.28,6.27 -6.28,6.27 -6.28,6.28 -6.94,5.43 -7.60,4.59 -8.04,3.61 -8.48,2.64 -8.67,1.58 -8.86,0.53 -8.80,-0.53 -8.73,-1.60 -8.41,-2.62 -8.09,-3.64 -7.54,-4.56 -6.99,-5.47 -6.23,-6.23 -5.47,-6.99 -4.56,-7.54 -3.64,-8.10 -2.62,-8.41 -1.60,-8.73 -0.53,-8.80 0.53,-8.86 1.59,-8.67 2.64,-8.48 3.61,-8.04 4.59,-7.60 5.43,-6.94 6.28,-6.28 6.28,-6.28 L 6.28,-6.28 Z"></path></g><g transform="translate(323.65928082084247 162.12781867285958) rotate(0 0.00005000000010113581 0.00004999999964638846)" stroke="none"><path fill="#1e1e1e" d="M 6.28,-6.28 Q 6.28,-6.28 7.11,-5.11 7.95,-3.94 8.37,-2.57 8.80,-1.19 8.76,0.23 8.72,1.67 8.22,3.02 7.73,4.37 6.83,5.49 5.93,6.61 4.72,7.38 3.50,8.15 2.11,8.50 0.72,8.85 -0.71,8.73 -2.14,8.61 -3.46,8.05 -4.78,7.48 -5.85,6.52 -6.92,5.56 -7.63,4.31 -8.33,3.06 -8.60,1.65 -8.87,0.23 -8.68,-1.18 -8.49,-2.60 -7.85,-3.89 -7.21,-5.18 -6.19,-6.19 -5.18,-7.21 -3.89,-7.85 -2.60,-8.49 -1.18,-8.68 0.24,-8.87 1.65,-8.60 3.06,-8.33 4.31,-7.62 5.56,-6.92 6.52,-5.85 7.48,-4.78 8.05,-3.46 8.62,-2.14 8.73,-0.70 8.85,0.72 8.50,2.11 8.15,3.51 7.38,4.72 6.61,5.93 5.48,6.83 4.36,7.73 3.02,8.22 1.67,8.72 0.23,8.76 -1.20,8.80 -2.57,8.37 -3.94,7.95 -5.11,7.11 -6.28,6.27 -6.28,6.27 -6.28,6.28 -6.94,5.43 -7.60,4.59 -8.04,3.61 -8.48,2.64 -8.67,1.58 -8.86,0.53 -8.80,-0.53 -8.73,-1.60 -8.41,-2.62 -8.09,-3.64 -7.54,-4.56 -6.99,-5.47 -6.23,-6.23 -5.47,-6.99 -4.56,-7.54 -3.64,-8.10 -2.62,-8.41 -1.60,-8.73 -0.53,-8.80 0.53,-8.86 1.59,-8.67 2.64,-8.48 3.61,-8.04 4.59,-7.60 5.43,-6.94 6.28,-6.28 6.28,-6.28 L 6.28,-6.28 Z"></path></g><g transform="translate(322.8828727983291 179.20826206734273) rotate(0 0.00005000000010113581 0.00004999999964638846)" stroke="none"><path fill="#1e1e1e" d="M 6.28,-6.28 Q 6.28,-6.28 7.11,-5.11 7.95,-3.94 8.37,-2.57 8.80,-1.19 8.76,0.23 8.72,1.67 8.22,3.02 7.73,4.37 6.83,5.49 5.93,6.61 4.72,7.38 3.50,8.15 2.11,8.50 0.72,8.85 -0.71,8.73 -2.14,8.61 -3.46,8.05 -4.78,7.48 -5.85,6.52 -6.92,5.56 -7.63,4.31 -8.33,3.06 -8.60,1.65 -8.87,0.23 -8.68,-1.18 -8.49,-2.60 -7.85,-3.89 -7.21,-5.18 -6.19,-6.19 -5.18,-7.21 -3.89,-7.85 -2.60,-8.49 -1.18,-8.68 0.24,-8.87 1.65,-8.60 3.06,-8.33 4.31,-7.62 5.56,-6.92 6.52,-5.85 7.48,-4.78 8.05,-3.46 8.62,-2.14 8.73,-0.70 8.85,0.72 8.50,2.11 8.15,3.51 7.38,4.72 6.61,5.93 5.48,6.83 4.36,7.73 3.02,8.22 1.67,8.72 0.23,8.76 -1.20,8.80 -2.57,8.37 -3.94,7.95 -5.11,7.11 -6.28,6.27 -6.28,6.27 -6.28,6.28 -6.94,5.43 -7.60,4.59 -8.04,3.61 -8.48,2.64 -8.67,1.58 -8.86,0.53 -8.80,-0.53 -8.73,-1.60 -8.41,-2.62 -8.09,-3.64 -7.54,-4.56 -6.99,-5.47 -6.23,-6.23 -5.47,-6.99 -4.56,-7.54 -3.64,-8.10 -2.62,-8.41 -1.60,-8.73 -0.53,-8.80 0.53,-8.86 1.59,-8.67 2.64,-8.48 3.61,-8.04 4.59,-7.60 5.43,-6.94 6.28,-6.28 6.28,-6.28 L 6.28,-6.28 Z"></path></g><g transform="translate(323.65928082084247 172.2208031050468) rotate(0 0.00005000000010113581 0.00004999999964638846)" stroke="none"><path fill="#1e1e1e" d="M 6.28,-6.28 Q 6.28,-6.28 7.11,-5.11 7.95,-3.94 8.37,-2.57 8.80,-1.19 8.76,0.23 8.72,1.67 8.22,3.02 7.73,4.37 6.83,5.49 5.93,6.61 4.72,7.38 3.50,8.15 2.11,8.50 0.72,8.85 -0.71,8.73 -2.14,8.61 -3.46,8.05 -4.78,7.48 -5.85,6.52 -6.92,5.56 -7.63,4.31 -8.33,3.06 -8.60,1.65 -8.87,0.23 -8.68,-1.18 -8.49,-2.60 -7.85,-3.89 -7.21,-5.18 -6.19,-6.19 -5.18,-7.21 -3.89,-7.85 -2.60,-8.49 -1.18,-8.68 0.24,-8.87 1.65,-8.60 3.06,-8.33 4.31,-7.62 5.56,-6.92 6.52,-5.85 7.48,-4.78 8.05,-3.46 8.62,-2.14 8.73,-0.70 8.85,0.72 8.50,2.11 8.15,3.51 7.38,4.72 6.61,5.93 5.48,6.83 4.36,7.73 3.02,8.22 1.67,8.72 0.23,8.76 -1.20,8.80 -2.57,8.37 -3.94,7.95 -5.11,7.11 -6.28,6.27 -6.28,6.27 -6.28,6.28 -6.94,5.43 -7.60,4.59 -8.04,3.61 -8.48,2.64 -8.67,1.58 -8.86,0.53 -8.80,-0.53 -8.73,-1.60 -8.41,-2.62 -8.09,-3.64 -7.54,-4.56 -6.99,-5.47 -6.23,-6.23 -5.47,-6.99 -4.56,-7.54 -3.64,-8.10 -2.62,-8.41 -1.60,-8.73 -0.53,-8.80 0.53,-8.86 1.59,-8.67 2.64,-8.48 3.61,-8.04 4.59,-7.60 5.43,-6.94 6.28,-6.28 6.28,-6.28 L 6.28,-6.28 Z"></path></g><g transform="translate(322.8828727983291 187.7485015346101) rotate(0 0.00005000000010113581 0.00004999999964638846)" stroke="none"><path fill="#1e1e1e" d="M 6.28,-6.28 Q 6.28,-6.28 7.11,-5.11 7.95,-3.94 8.37,-2.57 8.80,-1.19 8.76,0.23 8.72,1.67 8.22,3.02 7.73,4.37 6.83,5.49 5.93,6.61 4.72,7.38 3.50,8.15 2.11,8.50 0.72,8.85 -0.71,8.73 -2.14,8.61 -3.46,8.05 -4.78,7.48 -5.85,6.52 -6.92,5.56 -7.63,4.31 -8.33,3.06 -8.60,1.65 -8.87,0.23 -8.68,-1.18 -8.49,-2.60 -7.85,-3.89 -7.21,-5.18 -6.19,-6.19 -5.18,-7.21 -3.89,-7.85 -2.60,-8.49 -1.18,-8.68 0.24,-8.87 1.65,-8.60 3.06,-8.33 4.31,-7.62 5.56,-6.92 6.52,-5.85 7.48,-4.78 8.05,-3.46 8.62,-2.14 8.73,-0.70 8.85,0.72 8.50,2.11 8.15,3.51 7.38,4.72 6.61,5.93 5.48,6.83 4.36,7.73 3.02,8.22 1.67,8.72 0.23,8.76 -1.20,8.80 -2.57,8.37 -3.94,7.95 -5.11,7.11 -6.28,6.27 -6.28,6.27 -6.28,6.28 -6.94,5.43 -7.60,4.59 -8.04,3.61 -8.48,2.64 -8.67,1.58 -8.86,0.53 -8.80,-0.53 -8.73,-1.60 -8.41,-2.62 -8.09,-3.64 -7.54,-4.56 -6.99,-5.47 -6.23,-6.23 -5.47,-6.99 -4.56,-7.54 -3.64,-8.10 -2.62,-8.41 -1.60,-8.73 -0.53,-8.80 0.53,-8.86 1.59,-8.67 2.64,-8.48 3.61,-8.04 4.59,-7.60 5.43,-6.94 6.28,-6.28 6.28,-6.28 L 6.28,-6.28 Z"></path></g><g transform="translate(323.65928082084247 196.28874100188114) rotate(0 0.00005000000010113581 0.00004999999964638846)" stroke="none"><path fill="#1e1e1e" d="M 6.28,-6.28 Q 6.28,-6.28 7.11,-5.11 7.95,-3.94 8.37,-2.57 8.80,-1.19 8.76,0.23 8.72,1.67 8.22,3.02 7.73,4.37 6.83,5.49 5.93,6.61 4.72,7.38 3.50,8.15 2.11,8.50 0.72,8.85 -0.71,8.73 -2.14,8.61 -3.46,8.05 -4.78,7.48 -5.85,6.52 -6.92,5.56 -7.63,4.31 -8.33,3.06 -8.60,1.65 -8.87,0.23 -8.68,-1.18 -8.49,-2.60 -7.85,-3.89 -7.21,-5.18 -6.19,-6.19 -5.18,-7.21 -3.89,-7.85 -2.60,-8.49 -1.18,-8.68 0.24,-8.87 1.65,-8.60 3.06,-8.33 4.31,-7.62 5.56,-6.92 6.52,-5.85 7.48,-4.78 8.05,-3.46 8.62,-2.14 8.73,-0.70 8.85,0.72 8.50,2.11 8.15,3.51 7.38,4.72 6.61,5.93 5.48,6.83 4.36,7.73 3.02,8.22 1.67,8.72 0.23,8.76 -1.20,8.80 -2.57,8.37 -3.94,7.95 -5.11,7.11 -6.28,6.27 -6.28,6.27 -6.28,6.28 -6.94,5.43 -7.60,4.59 -8.04,3.61 -8.48,2.64 -8.67,1.58 -8.86,0.53 -8.80,-0.53 -8.73,-1.60 -8.41,-2.62 -8.09,-3.64 -7.54,-4.56 -6.99,-5.47 -6.23,-6.23 -5.47,-6.99 -4.56,-7.54 -3.64,-8.10 -2.62,-8.41 -1.60,-8.73 -0.53,-8.80 0.53,-8.86 1.59,-8.67 2.64,-8.48 3.61,-8.04 4.59,-7.60 5.43,-6.94 6.28,-6.28 6.28,-6.28 L 6.28,-6.28 Z"></path></g><g transform="translate(322.10653585592445 201.72341945920198) rotate(0 0.00005000000010113581 0.00004999999964638846)" stroke="none"><path fill="#1e1e1e" d="M 6.28,-6.28 Q 6.28,-6.28 7.11,-5.11 7.95,-3.94 8.37,-2.57 8.80,-1.19 8.76,0.23 8.72,1.67 8.22,3.02 7.73,4.37 6.83,5.49 5.93,6.61 4.72,7.38 3.50,8.15 2.11,8.50 0.72,8.85 -0.71,8.73 -2.14,8.61 -3.46,8.05 -4.78,7.48 -5.85,6.52 -6.92,5.56 -7.63,4.31 -8.33,3.06 -8.60,1.65 -8.87,0.23 -8.68,-1.18 -8.49,-2.60 -7.85,-3.89 -7.21,-5.18 -6.19,-6.19 -5.18,-7.21 -3.89,-7.85 -2.60,-8.49 -1.18,-8.68 0.24,-8.87 1.65,-8.60 3.06,-8.33 4.31,-7.62 5.56,-6.92 6.52,-5.85 7.48,-4.78 8.05,-3.46 8.62,-2.14 8.73,-0.70 8.85,0.72 8.50,2.11 8.15,3.51 7.38,4.72 6.61,5.93 5.48,6.83 4.36,7.73 3.02,8.22 1.67,8.72 0.23,8.76 -1.20,8.80 -2.57,8.37 -3.94,7.95 -5.11,7.11 -6.28,6.27 -6.28,6.27 -6.28,6.28 -6.94,5.43 -7.60,4.59 -8.04,3.61 -8.48,2.64 -8.67,1.58 -8.86,0.53 -8.80,-0.53 -8.73,-1.60 -8.41,-2.62 -8.09,-3.64 -7.54,-4.56 -6.99,-5.47 -6.23,-6.23 -5.47,-6.99 -4.56,-7.54 -3.64,-8.10 -2.62,-8.41 -1.60,-8.73 -0.53,-8.80 0.53,-8.86 1.59,-8.67 2.64,-8.48 3.61,-8.04 4.59,-7.60 5.43,-6.94 6.28,-6.28 6.28,-6.28 L 6.28,-6.28 Z"></path></g><g transform="translate(352.56341486069505 137.45872578730632) rotate(0 215.40594482421875 45)"><text x="215.40594482421875" y="31.536" font-family="Virgil, Segoe UI Emoji" font-size="36px" fill="#2f9e44" text-anchor="middle" style="white-space: pre;" direction="ltr" dominant-baseline="alphabetic">Glückwunsch! </text><text x="215.40594482421875" y="76.536" font-family="Virgil, Segoe UI Emoji" font-size="36px" fill="#2f9e44" text-anchor="middle" style="white-space: pre;" direction="ltr" dominant-baseline="alphabetic">Du bist heute gut dran!</text></g><g stroke-linecap="round" transform="translate(466.90211846778766 246.7536987028434) rotate(0 143.63111273831646 47.35945000112315)"><path d="M23.68 0 C105.85 0.35, 184.69 0.68, 263.58 0 M23.68 0 C114.9 -0.94, 207.57 -1.6, 263.58 0 M263.58 0 C279.16 -0.27, 288.69 5.9, 287.26 23.68 M263.58 0 C280.8 -0.39, 285.46 6.4, 287.26 23.68 M287.26 23.68 C285.54 38.62, 286.65 52.63, 287.26 71.04 M287.26 23.68 C286.77 38.97, 286.54 54.76, 287.26 71.04 M287.26 71.04 C285.86 84.94, 279.6 95.94, 263.58 94.72 M287.26 71.04 C287.91 88.89, 281.17 96.21, 263.58 94.72 M263.58 94.72 C192.99 97.78, 122.74 98.07, 23.68 94.72 M263.58 94.72 C201.59 97.09, 140.08 96.21, 23.68 94.72 M23.68 94.72 C6.99 94.62, 0.61 86.61, 0 71.04 M23.68 94.72 C5.98 96.59, 0.85 88.73, 0 71.04 M0 71.04 C-0.61 58.18, -0.25 41.69, 0 23.68 M0 71.04 C-0.3 54.05, 0.3 38.08, 0 23.68 M0 23.68 C-0.08 6.84, 9 -1.89, 23.68 0 M0 23.68 C-0.45 8.54, 7.94 -1.63, 23.68 0" stroke="#1e1e1e" stroke-width="4" fill="none"></path></g><g transform="translate(480.3705111259369 249.08281615022133) rotate(0 128.6099395751953 45)"><text x="128.6099395751953" y="31.536" font-family="Virgil, Segoe UI Emoji" font-size="36px" fill="#1e1e1e" text-anchor="middle" style="white-space: pre;" direction="ltr" dominant-baseline="alphabetic">Neue Aufgabe</text><text x="128.6099395751953" y="76.536" font-family="Virgil, Segoe UI Emoji" font-size="36px" fill="#1e1e1e" text-anchor="middle" style="white-space: pre;" direction="ltr" dominant-baseline="alphabetic">abgeschlossen?</text></g><g stroke-linecap="round" transform="translate(839.4680067238651 10) rotate(0 394.0150411172149 225.53965353966123)"><path d="M32 0 C308.31 1.87, 583.26 2.05, 756.03 0 M32 0 C189.61 1.94, 346.87 1.8, 756.03 0 M756.03 0 C775.81 0.41, 787.07 9.2, 788.03 32 M756.03 0 C776.45 0.58, 787.51 11.71, 788.03 32 M788.03 32 C787.82 144.16, 786.34 257.42, 788.03 419.08 M788.03 32 C787.81 125.84, 787.93 219.87, 788.03 419.08 M788.03 419.08 C787.81 441.45, 777.38 449.33, 756.03 451.08 M788.03 419.08 C789.84 441.38, 778.5 451.86, 756.03 451.08 M756.03 451.08 C573.14 454, 391.32 453.43, 32 451.08 M756.03 451.08 C499.12 454.25, 242.03 453.87, 32 451.08 M32 451.08 C12.3 449.49, -1.94 438.65, 0 419.08 M32 451.08 C12.5 452.58, -1.77 438.18, 0 419.08 M0 419.08 C-2.65 339.87, -1.95 258.44, 0 32 M0 419.08 C0.61 309.62, -0.31 198.66, 0 32 M0 32 C0.29 8.83, 11.7 1.96, 32 0 M0 32 C-0.76 10.29, 9.22 -0.49, 32 0" stroke="#1e1e1e" stroke-width="4" fill="none"></path></g><g transform="translate(869.6952420436364 54.071932286722586) rotate(0 218.04585064054436 29.41161254232611)"><text x="218.04585064054442" y="41.223316139323735" font-family="Virgil, Segoe UI Emoji" font-size="47.05858006772116px" fill="#1e1e1e" text-anchor="middle" style="white-space: pre;" direction="ltr" dominant-baseline="alphabetic">Aufgabe hinzufügen</text></g><g stroke-linecap="round" transform="translate(1115.9849227446657 114.58591991566209) rotate(0 146.87237952951273 51.837291811021714)"><path d="M25.92 0 C88.64 0.68, 152.87 0.45, 267.83 0 M25.92 0 C84.41 1.98, 143.79 1.2, 267.83 0 M267.83 0 C284.31 0.5, 293.29 9.55, 293.74 25.92 M267.83 0 C284.87 -1.3, 291.5 10.73, 293.74 25.92 M293.74 25.92 C292.4 40.76, 293.24 57.38, 293.74 77.76 M293.74 25.92 C293.98 43.68, 294.1 59.53, 293.74 77.76 M293.74 77.76 C295.32 95.88, 286.09 104.35, 267.83 103.67 M293.74 77.76 C292.65 92.79, 287.31 103.11, 267.83 103.67 M267.83 103.67 C191.74 101.84, 115.42 103.03, 25.92 103.67 M267.83 103.67 C173.1 103.01, 76.2 102.94, 25.92 103.67 M25.92 103.67 C10.24 104.98, -1.54 93.1, 0 77.76 M25.92 103.67 C6.49 105.16, 0.67 92.74, 0 77.76 M0 77.76 C-0.11 58.51, 0.13 41.2, 0 25.92 M0 77.76 C0.49 56.62, 0.86 38.3, 0 25.92 M0 25.92 C-0.66 8.31, 7.38 -0.42, 25.92 0 M0 25.92 C-0.99 8.99, 10.9 0.69, 25.92 0" stroke="#1e1e1e" stroke-width="4" fill="none"></path></g><g transform="translate(882.765855740744 124.95345737529715) rotate(0 105.35395812988281 45)"><text x="105.35395812988281" y="31.536" font-family="Virgil, Segoe UI Emoji" font-size="36px" fill="#1e1e1e" text-anchor="middle" style="white-space: pre;" direction="ltr" dominant-baseline="alphabetic">Aufgaben </text><text x="105.35395812988281" y="76.536" font-family="Virgil, Segoe UI Emoji" font-size="36px" fill="#1e1e1e" text-anchor="middle" style="white-space: pre;" direction="ltr" dominant-baseline="alphabetic">Bezeichnung:</text></g><g transform="translate(1157.4550725832023 188.8860909097457) rotate(0 0.00005000000010113581 0.00004999999964638846)" stroke="none"><path fill="#1e1e1e" d="M 3.14,-3.14 Q 3.14,-3.14 3.55,-2.55 3.97,-1.97 4.18,-1.28 4.40,-0.59 4.38,0.11 4.36,0.83 4.11,1.51 3.86,2.18 3.41,2.74 2.96,3.30 2.36,3.69 1.75,4.07 1.05,4.25 0.36,4.42 -0.35,4.36 -1.07,4.30 -1.73,4.02 -2.39,3.74 -2.92,3.26 -3.46,2.78 -3.81,2.15 -4.16,1.53 -4.30,0.82 -4.43,0.11 -4.34,-0.59 -4.24,-1.30 -3.92,-1.94 -3.60,-2.59 -3.09,-3.09 -2.59,-3.60 -1.94,-3.92 -1.30,-4.24 -0.59,-4.34 0.12,-4.43 0.82,-4.30 1.53,-4.16 2.15,-3.81 2.78,-3.46 3.26,-2.92 3.74,-2.39 4.02,-1.73 4.31,-1.07 4.36,-0.35 4.42,0.36 4.25,1.05 4.07,1.75 3.69,2.36 3.30,2.96 2.74,3.41 2.18,3.86 1.51,4.11 0.83,4.36 0.11,4.38 -0.60,4.40 -1.28,4.18 -1.97,3.97 -2.55,3.55 -3.14,3.13 -3.14,3.14 -3.14,3.14 -3.47,2.71 -3.80,2.29 -4.02,1.80 -4.24,1.32 -4.33,0.79 -4.43,0.26 -4.40,-0.26 -4.36,-0.80 -4.20,-1.31 -4.04,-1.82 -3.77,-2.28 -3.49,-2.73 -3.11,-3.11 -2.73,-3.49 -2.28,-3.77 -1.82,-4.05 -1.31,-4.20 -0.80,-4.36 -0.26,-4.40 0.26,-4.43 0.79,-4.33 1.32,-4.24 1.80,-4.02 2.29,-3.80 2.71,-3.47 3.14,-3.14 3.14,-3.14 L 3.14,-3.14 Z"></path></g><g transform="translate(1200.6527102958125 188.8860909097457) rotate(0 0.00005000000010113581 0.00004999999964638846)" stroke="none"><path fill="#1e1e1e" d="M 3.14,-3.14 Q 3.14,-3.14 3.55,-2.55 3.97,-1.97 4.18,-1.28 4.40,-0.59 4.38,0.11 4.36,0.83 4.11,1.51 3.86,2.18 3.41,2.74 2.96,3.30 2.36,3.69 1.75,4.07 1.05,4.25 0.36,4.42 -0.35,4.36 -1.07,4.30 -1.73,4.02 -2.39,3.74 -2.92,3.26 -3.46,2.78 -3.81,2.15 -4.16,1.53 -4.30,0.82 -4.43,0.11 -4.34,-0.59 -4.24,-1.30 -3.92,-1.94 -3.60,-2.59 -3.09,-3.09 -2.59,-3.60 -1.94,-3.92 -1.30,-4.24 -0.59,-4.34 0.12,-4.43 0.82,-4.30 1.53,-4.16 2.15,-3.81 2.78,-3.46 3.26,-2.92 3.74,-2.39 4.02,-1.73 4.31,-1.07 4.36,-0.35 4.42,0.36 4.25,1.05 4.07,1.75 3.69,2.36 3.30,2.96 2.74,3.41 2.18,3.86 1.51,4.11 0.83,4.36 0.11,4.38 -0.60,4.40 -1.28,4.18 -1.97,3.97 -2.55,3.55 -3.14,3.13 -3.14,3.14 -3.14,3.14 -3.47,2.71 -3.80,2.29 -4.02,1.80 -4.24,1.32 -4.33,0.79 -4.43,0.26 -4.40,-0.26 -4.36,-0.80 -4.20,-1.31 -4.04,-1.82 -3.77,-2.28 -3.49,-2.73 -3.11,-3.11 -2.73,-3.49 -2.28,-3.77 -1.82,-4.05 -1.31,-4.20 -0.80,-4.36 -0.26,-4.40 0.26,-4.43 0.79,-4.33 1.32,-4.24 1.80,-4.02 2.29,-3.80 2.71,-3.47 3.14,-3.14 3.14,-3.14 L 3.14,-3.14 Z"></path></g><g transform="translate(1245.5784686619381 187.1582075485203) rotate(0 0.00005000000010113581 0.00004999999964638846)" stroke="none"><path fill="#1e1e1e" d="M 3.14,-3.14 Q 3.14,-3.14 3.55,-2.55 3.97,-1.97 4.18,-1.28 4.40,-0.59 4.38,0.11 4.36,0.83 4.11,1.51 3.86,2.18 3.41,2.74 2.96,3.30 2.36,3.69 1.75,4.07 1.05,4.25 0.36,4.42 -0.35,4.36 -1.07,4.30 -1.73,4.02 -2.39,3.74 -2.92,3.26 -3.46,2.78 -3.81,2.15 -4.16,1.53 -4.30,0.82 -4.43,0.11 -4.34,-0.59 -4.24,-1.30 -3.92,-1.94 -3.60,-2.59 -3.09,-3.09 -2.59,-3.60 -1.94,-3.92 -1.30,-4.24 -0.59,-4.34 0.12,-4.43 0.82,-4.30 1.53,-4.16 2.15,-3.81 2.78,-3.46 3.26,-2.92 3.74,-2.39 4.02,-1.73 4.31,-1.07 4.36,-0.35 4.42,0.36 4.25,1.05 4.07,1.75 3.69,2.36 3.30,2.96 2.74,3.41 2.18,3.86 1.51,4.11 0.83,4.36 0.11,4.38 -0.60,4.40 -1.28,4.18 -1.97,3.97 -2.55,3.55 -3.14,3.13 -3.14,3.14 -3.14,3.14 -3.47,2.71 -3.80,2.29 -4.02,1.80 -4.24,1.32 -4.33,0.79 -4.43,0.26 -4.40,-0.26 -4.36,-0.80 -4.20,-1.31 -4.04,-1.82 -3.77,-2.28 -3.49,-2.73 -3.11,-3.11 -2.73,-3.49 -2.28,-3.77 -1.82,-4.05 -1.31,-4.20 -0.80,-4.36 -0.26,-4.40 0.26,-4.43 0.79,-4.33 1.32,-4.24 1.80,-4.02 2.29,-3.80 2.71,-3.47 3.14,-3.14 3.14,-3.14 L 3.14,-3.14 Z"></path></g><g stroke-linecap="round" transform="translate(1249.0340771895262 264.91406616762106) rotate(0 138.2328045285326 50)"><path d="M25 0 C74.13 0.25, 126.2 0.54, 251.47 0 M25 0 C102.42 1.87, 181.47 0.79, 251.47 0 M251.47 0 C269.79 -1.16, 276.03 8.01, 276.47 25 M251.47 0 C269.2 0.75, 277.98 10.6, 276.47 25 M276.47 25 C274.97 41.02, 277.57 54.89, 276.47 75 M276.47 25 C277.19 41.45, 276.41 59.23, 276.47 75 M276.47 75 C275.39 92.77, 267.23 101.93, 251.47 100 M276.47 75 C277.07 93.84, 268.36 100, 251.47 100 M251.47 100 C163.48 99.49, 79.64 96.8, 25 100 M251.47 100 C205.73 100.4, 160.09 100.91, 25 100 M25 100 C7.36 99.68, -0.07 91.59, 0 75 M25 100 C10.4 102.07, -1.5 89.91, 0 75 M0 75 C2.42 58.6, 0.13 42.28, 0 25 M0 75 C1.2 61.36, 0.89 46.7, 0 25 M0 25 C1.3 8.76, 7.3 -1.59, 25 0 M0 25 C1.99 6.62, 6.55 1.52, 25 0" stroke="#2f9e44" stroke-width="4" fill="none"></path></g><g transform="translate(1299.2289178508713 269.91406616762106) rotate(0 88.0379638671875 45)"><text x="88.0379638671875" y="31.536" font-family="Virgil, Segoe UI Emoji" font-size="36px" fill="#2f9e44" text-anchor="middle" style="white-space: pre;" direction="ltr" dominant-baseline="alphabetic">Aufgabe </text><text x="88.0379638671875" y="76.536" font-family="Virgil, Segoe UI Emoji" font-size="36px" fill="#2f9e44" text-anchor="middle" style="white-space: pre;" direction="ltr" dominant-baseline="alphabetic">Hinzufügen</text></g><g transform="translate(1295.6877980143045 185.43024508986855) rotate(0 0.00005000000010113581 0.00004999999964638846)" stroke="none"><path fill="#1e1e1e" d="M 3.14,-3.14 Q 3.14,-3.14 3.55,-2.55 3.97,-1.97 4.18,-1.28 4.40,-0.59 4.38,0.11 4.36,0.83 4.11,1.51 3.86,2.18 3.41,2.74 2.96,3.30 2.36,3.69 1.75,4.07 1.05,4.25 0.36,4.42 -0.35,4.36 -1.07,4.30 -1.73,4.02 -2.39,3.74 -2.92,3.26 -3.46,2.78 -3.81,2.15 -4.16,1.53 -4.30,0.82 -4.43,0.11 -4.34,-0.59 -4.24,-1.30 -3.92,-1.94 -3.60,-2.59 -3.09,-3.09 -2.59,-3.60 -1.94,-3.92 -1.30,-4.24 -0.59,-4.34 0.12,-4.43 0.82,-4.30 1.53,-4.16 2.15,-3.81 2.78,-3.46 3.26,-2.92 3.74,-2.39 4.02,-1.73 4.31,-1.07 4.36,-0.35 4.42,0.36 4.25,1.05 4.07,1.75 3.69,2.36 3.30,2.96 2.74,3.41 2.18,3.86 1.51,4.11 0.83,4.36 0.11,4.38 -0.60,4.40 -1.28,4.18 -1.97,3.97 -2.55,3.55 -3.14,3.13 -3.14,3.14 -3.14,3.14 -3.47,2.71 -3.80,2.29 -4.02,1.80 -4.24,1.32 -4.33,0.79 -4.43,0.26 -4.40,-0.26 -4.36,-0.80 -4.20,-1.31 -4.04,-1.82 -3.77,-2.28 -3.49,-2.73 -3.11,-3.11 -2.73,-3.49 -2.28,-3.77 -1.82,-4.05 -1.31,-4.20 -0.80,-4.36 -0.26,-4.40 0.26,-4.43 0.79,-4.33 1.32,-4.24 1.80,-4.02 2.29,-3.80 2.71,-3.47 3.14,-3.14 3.14,-3.14 L 3.14,-3.14 Z"></path></g><g transform="translate(1354.4367814650823 181.97447836741776) rotate(0 0.00005000000010113581 0.00004999999964638846)" stroke="none"><path fill="#1e1e1e" d="M 3.14,-3.14 Q 3.14,-3.14 3.55,-2.55 3.97,-1.97 4.18,-1.28 4.40,-0.59 4.38,0.11 4.36,0.83 4.11,1.51 3.86,2.18 3.41,2.74 2.96,3.30 2.36,3.69 1.75,4.07 1.05,4.25 0.36,4.42 -0.35,4.36 -1.07,4.30 -1.73,4.02 -2.39,3.74 -2.92,3.26 -3.46,2.78 -3.81,2.15 -4.16,1.53 -4.30,0.82 -4.43,0.11 -4.34,-0.59 -4.24,-1.30 -3.92,-1.94 -3.60,-2.59 -3.09,-3.09 -2.59,-3.60 -1.94,-3.92 -1.30,-4.24 -0.59,-4.34 0.12,-4.43 0.82,-4.30 1.53,-4.16 2.15,-3.81 2.78,-3.46 3.26,-2.92 3.74,-2.39 4.02,-1.73 4.31,-1.07 4.36,-0.35 4.42,0.36 4.25,1.05 4.07,1.75 3.69,2.36 3.30,2.96 2.74,3.41 2.18,3.86 1.51,4.11 0.83,4.36 0.11,4.38 -0.60,4.40 -1.28,4.18 -1.97,3.97 -2.55,3.55 -3.14,3.13 -3.14,3.14 -3.14,3.14 -3.47,2.71 -3.80,2.29 -4.02,1.80 -4.24,1.32 -4.33,0.79 -4.43,0.26 -4.40,-0.26 -4.36,-0.80 -4.20,-1.31 -4.04,-1.82 -3.77,-2.28 -3.49,-2.73 -3.11,-3.11 -2.73,-3.49 -2.28,-3.77 -1.82,-4.05 -1.31,-4.20 -0.80,-4.36 -0.26,-4.40 0.26,-4.43 0.79,-4.33 1.32,-4.24 1.80,-4.02 2.29,-3.80 2.71,-3.47 3.14,-3.14 3.14,-3.14 L 3.14,-3.14 Z"></path></g><g transform="translate(895.7499327272062 379.8200893811918) rotate(0 319.58990478515625 22.5)"><text x="319.58990478515625" y="31.536" font-family="Virgil, Segoe UI Emoji" font-size="36px" fill="#2f9e44" text-anchor="middle" style="white-space: pre;" direction="ltr" dominant-baseline="alphabetic">*onclick "Aufgabe wurde hinzugefügt"</text></g><g stroke-linecap="round" transform="translate(872.1353094964852 261.6163933032949) rotate(0 143.63111273831646 47.35945000112315)"><path d="M23.68 0 C93.38 -2.02, 164.75 -0.89, 263.58 0 M23.68 0 C103.4 -1.54, 183.3 -2.7, 263.58 0 M263.58 0 C280.94 0.84, 288.25 8.57, 287.26 23.68 M263.58 0 C278.27 -2.25, 289.47 7.33, 287.26 23.68 M287.26 23.68 C288.76 37.85, 289.59 54.35, 287.26 71.04 M287.26 23.68 C288.13 41.57, 286.34 60.15, 287.26 71.04 M287.26 71.04 C288.86 88.13, 277.83 92.78, 263.58 94.72 M287.26 71.04 C285.12 88.32, 280.04 92.43, 263.58 94.72 M263.58 94.72 C174.58 93.69, 86.04 95.24, 23.68 94.72 M263.58 94.72 C170.13 92.43, 76.86 94.01, 23.68 94.72 M23.68 94.72 C7.23 94.39, -1.26 86.4, 0 71.04 M23.68 94.72 C6.91 95.07, 2.26 87.52, 0 71.04 M0 71.04 C0.62 52.62, -1.39 38, 0 23.68 M0 71.04 C0.69 60.57, 1.19 48.81, 0 23.68 M0 23.68 C1.83 7.76, 7.69 0.71, 23.68 0 M0 23.68 C1.75 8.53, 7.4 -0.92, 23.68 0" stroke="#1e1e1e" stroke-width="4" fill="none"></path></g><g transform="translate(917.6076694397907 263.9455107506692) rotate(0 96.60597229003906 45)"><text x="96.60597229003906" y="31.536" font-family="Virgil, Segoe UI Emoji" font-size="36px" fill="#1e1e1e" text-anchor="middle" style="white-space: pre;" direction="ltr" dominant-baseline="alphabetic">Zurück zur</text><text x="96.60597229003906" y="76.536" font-family="Virgil, Segoe UI Emoji" font-size="36px" fill="#1e1e1e" text-anchor="middle" style="white-space: pre;" direction="ltr" dominant-baseline="alphabetic">Startseite</text></g></svg>