<svg version="1.1" xmlns="http://www.w3.org/2000/svg" viewBox="0 0 3799.8024751553357 1043.786592365097" width="3799.8024751553357" height="1043.786592365097">
  <!-- svg-source:excalidraw -->
  
  <defs>
    <style class="style-fonts">
      @font-face {
        font-family: "Virgil";
        src: url("https://excalidraw.com/Virgil.woff2");
      }
      @font-face {
        font-family: "Cascadia";
        src: url("https://excalidraw.com/Cascadia.woff2");
      }
      @font-face {
        font-family: "Assistant";
        src: url("https://excalidraw.com/Assistant-Regular.woff2");
      }
    </style>
    
  </defs>
  <rect x="0" y="0" width="3799.8024751553357" height="1043.786592365097" fill="#ffffff"></rect><g stroke-linecap="round" transform="translate(830.6909232708381 351.777967512573) rotate(0 394.0150411172149 225.53965353966123)"><path d="M32 0 C250.89 1.07, 471.45 -0.38, 756.03 0 M32 0 C293.77 -1.71, 555.27 -2.04, 756.03 0 M756.03 0 C777.04 -1.67, 787.21 9.01, 788.03 32 M756.03 0 C777.04 0.17, 788.82 9.05, 788.03 32 M788.03 32 C787.89 161.82, 786.71 290.92, 788.03 419.08 M788.03 32 C788.06 181.24, 787.98 331.88, 788.03 419.08 M788.03 419.08 C786.73 440.16, 778.77 452.92, 756.03 451.08 M788.03 419.08 C789.42 441.41, 775.42 448.97, 756.03 451.08 M756.03 451.08 C609.41 449.79, 463 449.88, 32 451.08 M756.03 451.08 C487.28 450.51, 218.63 450.47, 32 451.08 M32 451.08 C12.52 450.14, 0.88 441.31, 0 419.08 M32 451.08 C9.02 449.25, -0.84 441.63, 0 419.08 M0 419.08 C-0.8 295.48, -0.42 172.46, 0 32 M0 419.08 C0.19 326.09, 0.58 233, 0 32 M0 32 C-0.44 12.26, 11.59 -1.04, 32 0 M0 32 C-1.74 9.35, 8.41 -1.61, 32 0" stroke="#1e1e1e" stroke-width="4" fill="none"></path></g><g transform="translate(866.7677549992532 390.49782474268795) rotate(0 181.8717041015625 29.411652091041105)"><text x="181.8717041015625" y="41.223371570803195" font-family="Virgil, Segoe UI Emoji" font-size="47.05864334566574px" fill="#1e1e1e" text-anchor="middle" style="white-space: pre;" direction="ltr" dominant-baseline="alphabetic">Meine Done-List</text></g><g stroke-linecap="round" transform="translate(893.5780539314983 470.5647698715984) rotate(0 134.70265148976455 156.44143639916456)"><path d="M32 0 C100.43 -0.06, 168.25 0.57, 237.41 0 M32 0 C85.63 0.52, 139.41 0.03, 237.41 0 M237.41 0 C260.32 0.37, 271.25 10.2, 269.41 32 M237.41 0 C257.66 -0.19, 268.82 9.22, 269.41 32 M269.41 32 C269.28 120.63, 271.2 209.53, 269.41 280.88 M269.41 32 C271.03 116.22, 270.16 200.22, 269.41 280.88 M269.41 280.88 C271.16 301.85, 257.07 314.35, 237.41 312.88 M269.41 280.88 C269.75 300.35, 257.48 314.16, 237.41 312.88 M237.41 312.88 C165.4 311.72, 92.63 310.62, 32 312.88 M237.41 312.88 C160.96 311.52, 84.89 312.73, 32 312.88 M32 312.88 C12.26 313.59, -0.02 300.45, 0 280.88 M32 312.88 C12.68 314.36, 0.57 304.03, 0 280.88 M0 280.88 C3.63 213.33, 2.29 146.24, 0 32 M0 280.88 C0.33 195.89, 1.48 111.16, 0 32 M0 32 C1.04 9.94, 8.99 -0.07, 32 0 M0 32 C-1.13 10.25, 8.76 0.87, 32 0" stroke="#1e1e1e" stroke-width="4" fill="none"></path></g><g stroke-linecap="round" transform="translate(908.3293443385487 483.76331531373035) rotate(0 107.5292414331227 30.66717507784415)"><path d="M15.33 0 C75.12 -0.74, 139.34 -1.08, 199.72 0 M15.33 0 C82.77 0.19, 149.89 1.79, 199.72 0 M199.72 0 C207.99 -1.61, 215.63 6.41, 215.06 15.33 M199.72 0 C210.18 1.78, 213.68 4.3, 215.06 15.33 M215.06 15.33 C214.65 23.78, 214.13 37.58, 215.06 46 M215.06 15.33 C215.65 24.33, 214.3 33.06, 215.06 46 M215.06 46 C215.12 55.5, 211.72 61.17, 199.72 61.33 M215.06 46 C217.26 56.94, 209.3 61.24, 199.72 61.33 M199.72 61.33 C136.55 63.58, 71.3 61.75, 15.33 61.33 M199.72 61.33 C152.54 62.54, 105.43 63.88, 15.33 61.33 M15.33 61.33 C5.68 60.91, -0.64 56.47, 0 46 M15.33 61.33 C3.22 63.63, -0.84 54.55, 0 46 M0 46 C-0.36 38.93, -2.01 30.81, 0 15.33 M0 46 C-1.23 36.24, 0.39 27.13, 0 15.33 M0 15.33 C-0.54 3.83, 6.07 1.7, 15.33 0 M0 15.33 C1.66 6.27, 6.38 1.28, 15.33 0" stroke="#2f9e44" stroke-width="4" fill="none"></path></g><g stroke-linecap="round" transform="translate(906.3884664424818 555.5788716828883) rotate(0 107.5292414331227 30.66717507784415)"><path d="M15.33 0 C88.53 0.09, 163.37 -1.94, 199.72 0 M15.33 0 C68.35 1.32, 122.94 2.34, 199.72 0 M199.72 0 C209.43 -0.22, 215.31 4.29, 215.06 15.33 M199.72 0 C212.06 -1.24, 216.58 6.41, 215.06 15.33 M215.06 15.33 C214.8 21.45, 215.13 29.9, 215.06 46 M215.06 15.33 C214.16 25.14, 215 35.56, 215.06 46 M215.06 46 C216.24 56.41, 208.63 62.17, 199.72 61.33 M215.06 46 C215.32 58.39, 208.65 59.83, 199.72 61.33 M199.72 61.33 C146.44 63.47, 91.84 63.2, 15.33 61.33 M199.72 61.33 C162.4 61.54, 124 62.88, 15.33 61.33 M15.33 61.33 C6.88 60.07, 1.03 55.88, 0 46 M15.33 61.33 C4.69 62.9, 0.35 58.24, 0 46 M0 46 C-2.15 35.3, -1.27 25.9, 0 15.33 M0 46 C0.74 40.06, 0.67 32.49, 0 15.33 M0 15.33 C-0.98 4.65, 5.79 1.62, 15.33 0 M0 15.33 C1.87 6.98, 7.31 -0.76, 15.33 0" stroke="#2f9e44" stroke-width="4" fill="none"></path></g><g stroke-linecap="round" transform="translate(907.9411403272911 633.2173282906515) rotate(0 107.5292414331227 30.66717507784415)"><path d="M15.33 0 C55.19 -2.4, 92.91 0.29, 199.72 0 M15.33 0 C86.82 -1.13, 159.32 -0.8, 199.72 0 M199.72 0 C211.7 1.02, 216.2 3.35, 215.06 15.33 M199.72 0 C207.68 0.08, 213.8 6.76, 215.06 15.33 M215.06 15.33 C217.16 22.27, 217 25.97, 215.06 46 M215.06 15.33 C215.8 23.84, 215.8 31.68, 215.06 46 M215.06 46 C214.4 58.16, 210.85 60.94, 199.72 61.33 M215.06 46 C215.68 58.03, 210.47 61.74, 199.72 61.33 M199.72 61.33 C140.06 58.9, 78.53 58.13, 15.33 61.33 M199.72 61.33 C149.73 60.53, 102.24 60.74, 15.33 61.33 M15.33 61.33 C6.55 60.91, -1.72 57.28, 0 46 M15.33 61.33 C3.9 61.85, 0.71 58.03, 0 46 M0 46 C0.11 41.51, 0.72 33.8, 0 15.33 M0 46 C0.58 33.41, 0.99 22.63, 0 15.33 M0 15.33 C1.95 5.43, 5.1 1.18, 15.33 0 M0 15.33 C-0.95 5.23, 6.27 -0.17, 15.33 0" stroke="#2f9e44" stroke-width="4" fill="none"></path></g><g stroke-linecap="round" transform="translate(905.6119873398602 709.3030043934432) rotate(0 107.5292414331227 30.66717507784415)"><path d="M15.33 0 C77.52 0.89, 138.89 -0.19, 199.72 0 M15.33 0 C80.15 1.58, 144.65 1.68, 199.72 0 M199.72 0 C209.13 -1.84, 215.17 3.5, 215.06 15.33 M199.72 0 C209.61 2.29, 217.16 7.38, 215.06 15.33 M215.06 15.33 C213.39 23.9, 214.64 37.69, 215.06 46 M215.06 15.33 C215.38 25.98, 214.48 34.62, 215.06 46 M215.06 46 C213.47 56.1, 209 59.55, 199.72 61.33 M215.06 46 C216.71 55.48, 208.16 63.03, 199.72 61.33 M199.72 61.33 C141.17 60.07, 79.91 60.43, 15.33 61.33 M199.72 61.33 C142.12 60.36, 84.32 60.23, 15.33 61.33 M15.33 61.33 C5.09 61.87, 0.06 55.93, 0 46 M15.33 61.33 C3.63 59.89, 1.79 56.6, 0 46 M0 46 C-1.57 37.2, 0.72 25.79, 0 15.33 M0 46 C0.14 38.06, -0.93 32.61, 0 15.33 M0 15.33 C-1.87 4.33, 6.67 0.25, 15.33 0 M0 15.33 C0.82 3.16, 4.67 2.14, 15.33 0" stroke="#2f9e44" stroke-width="4" fill="none"></path></g><g transform="translate(854.8364701591136 304.41851751144895) rotate(0 201.00592041015625 22.5)"><text x="201.00592041015625" y="31.536" font-family="Virgil, Segoe UI Emoji" font-size="36px" fill="#1e1e1e" text-anchor="middle" style="white-space: pre;" direction="ltr" dominant-baseline="alphabetic">Startseite / Übersicht</text></g><g transform="translate(926.1154194130581 493.85626420586414) rotate(0 59.07597351074219 22.5)"><text x="59.07597351074219" y="31.536" font-family="Virgil, Segoe UI Emoji" font-size="36px" fill="#1e1e1e" text-anchor="middle" style="white-space: pre;" direction="ltr" dominant-baseline="alphabetic">M-322</text></g><g stroke-linecap="round"><g transform="translate(1070.5937165163741 519.4769826076681) rotate(0 8.152035456011617 7.763849214781658)"><path d="M0.18 0.5 C2.81 3.04, 13.86 11.83, 16.62 14.49 M-1.18 -0.28 C1.24 2.43, 12.94 13, 15.85 15.48" stroke="#2f9e44" stroke-width="4" fill="none"></path></g></g><mask></mask><g stroke-linecap="round"><g transform="translate(1089.2269404158292 531.8991200272867) rotate(0 9.704780420930092 -15.5276806595366)"><path d="M-0.79 -0.77 C2.42 -5.82, 16.82 -25.14, 20.33 -30.08 M0.99 1.44 C4.04 -3.96, 16.7 -26.04, 19.86 -31.69" stroke="#2f9e44" stroke-width="4" fill="none"></path></g></g><mask></mask><g transform="translate(918.0505601835625 566.836450378818) rotate(0 49.28398132324219 22.5)"><text x="49.28398132324219" y="31.536" font-family="Virgil, Segoe UI Emoji" font-size="36px" fill="#1e1e1e" text-anchor="middle" style="white-space: pre;" direction="ltr" dominant-baseline="alphabetic">M-319</text></g><g transform="translate(916.0354531220582 643.7136563559288) rotate(0 69.15597534179688 22.5)"><text x="69.15597534179688" y="31.536" font-family="Virgil, Segoe UI Emoji" font-size="36px" fill="#1e1e1e" text-anchor="middle" style="white-space: pre;" direction="ltr" dominant-baseline="alphabetic">M-306A</text></g><g transform="translate(915.7272785754712 723.6660730192125) rotate(0 57.04197692871094 22.5)"><text x="57.04197692871094" y="31.536" font-family="Virgil, Segoe UI Emoji" font-size="36px" fill="#1e1e1e" text-anchor="middle" style="white-space: pre;" direction="ltr" dominant-baseline="alphabetic">M-426</text></g><g stroke-linecap="round"><g transform="translate(1061.7993190692819 592.8006978402373) rotate(0 8.152035456011617 7.763849214781658)"><path d="M1.12 0.34 C3.96 3.01, 13.76 14.22, 16.11 16.67 M0.24 -0.52 C3 1.78, 12.17 12.37, 15.06 15.15" stroke="#2f9e44" stroke-width="4" fill="none"></path></g></g><mask></mask><g stroke-linecap="round"><g transform="translate(1080.4325429687365 605.2228352598577) rotate(0 9.704780420930092 -15.5276806595366)"><path d="M-0.19 1.14 C2.68 -4.17, 15.23 -26.33, 18.37 -31.52 M-1.75 0.7 C1.39 -4.48, 16.72 -24.81, 20.53 -30.22" stroke="#2f9e44" stroke-width="4" fill="none"></path></g></g><mask></mask><g stroke-linecap="round"><g transform="translate(1068.0104410891713 665.0044404506225) rotate(0 8.152035456011617 7.763849214781658)"><path d="M0.72 -0.03 C3.3 2.56, 13.86 12.07, 16.61 14.76 M-0.37 -1.1 C2 1.71, 12.93 13.37, 15.83 15.9" stroke="#2f9e44" stroke-width="4" fill="none"></path></g></g><mask></mask><g stroke-linecap="round"><g transform="translate(1086.6436649886268 677.4265778702429) rotate(0 9.704780420930092 -15.5276806595366)"><path d="M0.31 -0.76 C3.58 -5.83, 17.36 -25.46, 20.36 -30.47 M-0.99 1.45 C2.15 -3.97, 16.32 -27.15, 19.91 -32.28" stroke="#2f9e44" stroke-width="4" fill="none"></path></g></g><mask></mask><g stroke-linecap="round"><g transform="translate(1070.3395940766036 741.0900810133644) rotate(0 8.152035456011617 7.763849214781658)"><path d="M-0.9 0.67 C1.96 3.48, 14.7 13.73, 17.39 16.24 M0.83 -0.03 C3.6 2.5, 14.21 11.63, 17.01 14.5" stroke="#2f9e44" stroke-width="4" fill="none"></path></g></g><mask></mask><g stroke-linecap="round"><g transform="translate(1088.972817976059 753.5122184329812) rotate(0 9.704780420930092 -15.5276806595366)"><path d="M1.09 0.72 C4.3 -4.53, 15.44 -25.5, 18.38 -30.83 M0.2 0.05 C3.85 -5.65, 17.04 -27.82, 20.55 -32.83" stroke="#2f9e44" stroke-width="4" fill="none"></path></g></g><mask></mask><g stroke-linecap="round" transform="translate(1134.25718411944 486.0924683011617) rotate(0 9.704815960984206 138.1963987409399)"><path d="M4.85 0 C8.56 0.3, 11.46 0.57, 14.56 0 M4.85 0 C7.35 0.06, 10.23 0.37, 14.56 0 M14.56 0 C19.22 -1.52, 18.61 0.49, 19.41 4.85 M14.56 0 C19.68 -1.9, 18.26 0.45, 19.41 4.85 M19.41 4.85 C16.46 106.74, 16.65 207.93, 19.41 271.54 M19.41 4.85 C17.3 80.47, 18.37 154.91, 19.41 271.54 M19.41 271.54 C19.46 275.87, 15.83 276.67, 14.56 276.39 M19.41 271.54 C19.64 273.55, 16.9 278.68, 14.56 276.39 M14.56 276.39 C9.95 276.06, 7.15 277.32, 4.85 276.39 M14.56 276.39 C11.03 276.16, 8.04 276.03, 4.85 276.39 M4.85 276.39 C1.37 275.88, -1.62 276.16, 0 271.54 M4.85 276.39 C1.71 275.07, -0.81 276.29, 0 271.54 M0 271.54 C3.34 186.38, 2.64 100.64, 0 4.85 M0 271.54 C-0.92 195.89, -0.28 120.2, 0 4.85 M0 4.85 C-1.46 0.19, 1.39 -1.42, 4.85 0 M0 4.85 C0.94 -0.1, 0.67 0.01, 4.85 0" stroke="#1e1e1e" stroke-width="4" fill="none"></path></g><g stroke-linecap="round" transform="translate(1135.0335921419532 485.31606027864837) rotate(0 9.31661194972753 29.50261635415518)"><path d="M4.66 0 C8.18 0.21, 12.14 -0.62, 13.97 0 M4.66 0 C7.63 0.08, 10.15 -0.24, 13.97 0 M13.97 0 C15.56 -0.29, 16.83 0.87, 18.63 4.66 M13.97 0 C17.11 -0.36, 19.01 0.47, 18.63 4.66 M18.63 4.66 C19.22 14.65, 18.35 25.63, 18.63 54.35 M18.63 4.66 C19.26 23.71, 19.01 40.09, 18.63 54.35 M18.63 54.35 C17.87 59.17, 18.88 60.59, 13.97 59.01 M18.63 54.35 C16.77 57.5, 16.92 57.9, 13.97 59.01 M13.97 59.01 C11.16 59.17, 10.15 59.04, 4.66 59.01 M13.97 59.01 C11.37 58.58, 9.6 58.8, 4.66 59.01 M4.66 59.01 C3.37 58.93, -1.44 56.37, 0 54.35 M4.66 59.01 C0.96 58.41, 1.94 55.81, 0 54.35 M0 54.35 C-1.33 36.92, -1.02 18.34, 0 4.66 M0 54.35 C-0.92 43.84, -0.7 31.89, 0 4.66 M0 4.66 C-0.33 1.05, 1.16 1.27, 4.66 0 M0 4.66 C-1.49 0.63, 3.82 -1.69, 4.66 0" stroke="#1e1e1e" stroke-width="4" fill="none"></path></g><g transform="translate(1144.3502040916806 493.07992726345765) rotate(0 0.00005000000010113581 0.00004999999964638846)" stroke="none"><path fill="#1e1e1e" d="M 6.28,-6.28 Q 6.28,-6.28 7.11,-5.11 7.95,-3.94 8.37,-2.57 8.80,-1.19 8.76,0.23 8.72,1.67 8.22,3.02 7.73,4.37 6.83,5.49 5.93,6.61 4.72,7.38 3.50,8.15 2.11,8.50 0.72,8.85 -0.71,8.73 -2.14,8.61 -3.46,8.05 -4.78,7.48 -5.85,6.52 -6.92,5.56 -7.63,4.31 -8.33,3.06 -8.60,1.65 -8.87,0.23 -8.68,-1.18 -8.49,-2.60 -7.85,-3.89 -7.21,-5.18 -6.19,-6.19 -5.18,-7.21 -3.89,-7.85 -2.60,-8.49 -1.18,-8.68 0.24,-8.87 1.65,-8.60 3.06,-8.33 4.31,-7.62 5.56,-6.92 6.52,-5.85 7.48,-4.78 8.05,-3.46 8.62,-2.14 8.73,-0.70 8.85,0.72 8.50,2.11 8.15,3.51 7.38,4.72 6.61,5.93 5.49,6.83 4.36,7.73 3.02,8.22 1.67,8.72 0.23,8.76 -1.20,8.80 -2.57,8.37 -3.94,7.95 -5.11,7.11 -6.28,6.27 -6.28,6.28 -6.28,6.28 -6.94,5.43 -7.60,4.59 -8.04,3.61 -8.48,2.64 -8.67,1.58 -8.86,0.53 -8.80,-0.53 -8.73,-1.60 -8.41,-2.62 -8.09,-3.64 -7.54,-4.56 -6.99,-5.47 -6.23,-6.23 -5.47,-6.99 -4.56,-7.54 -3.64,-8.10 -2.62,-8.41 -1.60,-8.73 -0.53,-8.80 0.53,-8.86 1.59,-8.67 2.64,-8.48 3.61,-8.04 4.59,-7.60 5.43,-6.94 6.28,-6.28 6.28,-6.28 L 6.28,-6.28 Z"></path></g><g transform="translate(1143.5737960691672 504.72569220061814) rotate(0 0.00005000000010113581 0.00004999999964638846)" stroke="none"><path fill="#1e1e1e" d="M 6.28,-6.28 Q 6.28,-6.28 7.11,-5.11 7.95,-3.94 8.37,-2.57 8.80,-1.19 8.76,0.23 8.72,1.67 8.22,3.02 7.73,4.37 6.83,5.49 5.93,6.61 4.72,7.38 3.50,8.15 2.11,8.50 0.72,8.85 -0.71,8.73 -2.14,8.61 -3.46,8.05 -4.78,7.48 -5.85,6.52 -6.92,5.56 -7.63,4.31 -8.33,3.06 -8.60,1.65 -8.87,0.23 -8.68,-1.18 -8.49,-2.60 -7.85,-3.89 -7.21,-5.18 -6.19,-6.19 -5.18,-7.21 -3.89,-7.85 -2.60,-8.49 -1.18,-8.68 0.24,-8.87 1.65,-8.60 3.06,-8.33 4.31,-7.62 5.56,-6.92 6.52,-5.85 7.48,-4.78 8.05,-3.46 8.62,-2.14 8.73,-0.70 8.85,0.72 8.50,2.11 8.15,3.51 7.38,4.72 6.61,5.93 5.49,6.83 4.36,7.73 3.02,8.22 1.67,8.72 0.23,8.76 -1.20,8.80 -2.57,8.37 -3.94,7.95 -5.11,7.11 -6.28,6.27 -6.28,6.28 -6.28,6.28 -6.94,5.43 -7.60,4.59 -8.04,3.61 -8.48,2.64 -8.67,1.58 -8.86,0.53 -8.80,-0.53 -8.73,-1.60 -8.41,-2.62 -8.09,-3.64 -7.54,-4.56 -6.99,-5.47 -6.23,-6.23 -5.47,-6.99 -4.56,-7.54 -3.64,-8.10 -2.62,-8.41 -1.60,-8.73 -0.53,-8.80 0.53,-8.86 1.59,-8.67 2.64,-8.48 3.61,-8.04 4.59,-7.60 5.43,-6.94 6.28,-6.28 6.28,-6.28 L 6.28,-6.28 Z"></path></g><g transform="translate(1144.3502040916806 498.5146057207803) rotate(0 0.00005000000010113581 0.00004999999964638846)" stroke="none"><path fill="#1e1e1e" d="M 6.28,-6.28 Q 6.28,-6.28 7.11,-5.11 7.95,-3.94 8.37,-2.57 8.80,-1.19 8.76,0.23 8.72,1.67 8.22,3.02 7.73,4.37 6.83,5.49 5.93,6.61 4.72,7.38 3.50,8.15 2.11,8.50 0.72,8.85 -0.71,8.73 -2.14,8.61 -3.46,8.05 -4.78,7.48 -5.85,6.52 -6.92,5.56 -7.63,4.31 -8.33,3.06 -8.60,1.65 -8.87,0.23 -8.68,-1.18 -8.49,-2.60 -7.85,-3.89 -7.21,-5.18 -6.19,-6.19 -5.18,-7.21 -3.89,-7.85 -2.60,-8.49 -1.18,-8.68 0.24,-8.87 1.65,-8.60 3.06,-8.33 4.31,-7.62 5.56,-6.92 6.52,-5.85 7.48,-4.78 8.05,-3.46 8.62,-2.14 8.73,-0.70 8.85,0.72 8.50,2.11 8.15,3.51 7.38,4.72 6.61,5.93 5.49,6.83 4.36,7.73 3.02,8.22 1.67,8.72 0.23,8.76 -1.20,8.80 -2.57,8.37 -3.94,7.95 -5.11,7.11 -6.28,6.27 -6.28,6.28 -6.28,6.28 -6.94,5.43 -7.60,4.59 -8.04,3.61 -8.48,2.64 -8.67,1.58 -8.86,0.53 -8.80,-0.53 -8.73,-1.60 -8.41,-2.62 -8.09,-3.64 -7.54,-4.56 -6.99,-5.47 -6.23,-6.23 -5.47,-6.99 -4.56,-7.54 -3.64,-8.10 -2.62,-8.41 -1.60,-8.73 -0.53,-8.80 0.53,-8.86 1.59,-8.67 2.64,-8.48 3.61,-8.04 4.59,-7.60 5.43,-6.94 6.28,-6.28 6.28,-6.28 L 6.28,-6.28 Z"></path></g><g transform="translate(1143.5737960691672 515.5950491152635) rotate(0 0.00005000000010113581 0.00004999999964638846)" stroke="none"><path fill="#1e1e1e" d="M 6.28,-6.28 Q 6.28,-6.28 7.11,-5.11 7.95,-3.94 8.37,-2.57 8.80,-1.19 8.76,0.23 8.72,1.67 8.22,3.02 7.73,4.37 6.83,5.49 5.93,6.61 4.72,7.38 3.50,8.15 2.11,8.50 0.72,8.85 -0.71,8.73 -2.14,8.61 -3.46,8.05 -4.78,7.48 -5.85,6.52 -6.92,5.56 -7.63,4.31 -8.33,3.06 -8.60,1.65 -8.87,0.23 -8.68,-1.18 -8.49,-2.60 -7.85,-3.89 -7.21,-5.18 -6.19,-6.19 -5.18,-7.21 -3.89,-7.85 -2.60,-8.49 -1.18,-8.68 0.24,-8.87 1.65,-8.60 3.06,-8.33 4.31,-7.62 5.56,-6.92 6.52,-5.85 7.48,-4.78 8.05,-3.46 8.62,-2.14 8.73,-0.70 8.85,0.72 8.50,2.11 8.15,3.51 7.38,4.72 6.61,5.93 5.49,6.83 4.36,7.73 3.02,8.22 1.67,8.72 0.23,8.76 -1.20,8.80 -2.57,8.37 -3.94,7.95 -5.11,7.11 -6.28,6.27 -6.28,6.28 -6.28,6.28 -6.94,5.43 -7.60,4.59 -8.04,3.61 -8.48,2.64 -8.67,1.58 -8.86,0.53 -8.80,-0.53 -8.73,-1.60 -8.41,-2.62 -8.09,-3.64 -7.54,-4.56 -6.99,-5.47 -6.23,-6.23 -5.47,-6.99 -4.56,-7.54 -3.64,-8.10 -2.62,-8.41 -1.60,-8.73 -0.53,-8.80 0.53,-8.86 1.59,-8.67 2.64,-8.48 3.61,-8.04 4.59,-7.60 5.43,-6.94 6.28,-6.28 6.28,-6.28 L 6.28,-6.28 Z"></path></g><g transform="translate(1144.3502040916806 508.60759015296753) rotate(0 0.00005000000010113581 0.00004999999964638846)" stroke="none"><path fill="#1e1e1e" d="M 6.28,-6.28 Q 6.28,-6.28 7.11,-5.11 7.95,-3.94 8.37,-2.57 8.80,-1.19 8.76,0.23 8.72,1.67 8.22,3.02 7.73,4.37 6.83,5.49 5.93,6.61 4.72,7.38 3.50,8.15 2.11,8.50 0.72,8.85 -0.71,8.73 -2.14,8.61 -3.46,8.05 -4.78,7.48 -5.85,6.52 -6.92,5.56 -7.63,4.31 -8.33,3.06 -8.60,1.65 -8.87,0.23 -8.68,-1.18 -8.49,-2.60 -7.85,-3.89 -7.21,-5.18 -6.19,-6.19 -5.18,-7.21 -3.89,-7.85 -2.60,-8.49 -1.18,-8.68 0.24,-8.87 1.65,-8.60 3.06,-8.33 4.31,-7.62 5.56,-6.92 6.52,-5.85 7.48,-4.78 8.05,-3.46 8.62,-2.14 8.73,-0.70 8.85,0.72 8.50,2.11 8.15,3.51 7.38,4.72 6.61,5.93 5.49,6.83 4.36,7.73 3.02,8.22 1.67,8.72 0.23,8.76 -1.20,8.80 -2.57,8.37 -3.94,7.95 -5.11,7.11 -6.28,6.27 -6.28,6.28 -6.28,6.28 -6.94,5.43 -7.60,4.59 -8.04,3.61 -8.48,2.64 -8.67,1.58 -8.86,0.53 -8.80,-0.53 -8.73,-1.60 -8.41,-2.62 -8.09,-3.64 -7.54,-4.56 -6.99,-5.47 -6.23,-6.23 -5.47,-6.99 -4.56,-7.54 -3.64,-8.10 -2.62,-8.41 -1.60,-8.73 -0.53,-8.80 0.53,-8.86 1.59,-8.67 2.64,-8.48 3.61,-8.04 4.59,-7.60 5.43,-6.94 6.28,-6.28 6.28,-6.28 L 6.28,-6.28 Z"></path></g><g transform="translate(1143.5737960691672 524.1352885825308) rotate(0 0.00005000000010113581 0.00004999999964638846)" stroke="none"><path fill="#1e1e1e" d="M 6.28,-6.28 Q 6.28,-6.28 7.11,-5.11 7.95,-3.94 8.37,-2.57 8.80,-1.19 8.76,0.23 8.72,1.67 8.22,3.02 7.73,4.37 6.83,5.49 5.93,6.61 4.72,7.38 3.50,8.15 2.11,8.50 0.72,8.85 -0.71,8.73 -2.14,8.61 -3.46,8.05 -4.78,7.48 -5.85,6.52 -6.92,5.56 -7.63,4.31 -8.33,3.06 -8.60,1.65 -8.87,0.23 -8.68,-1.18 -8.49,-2.60 -7.85,-3.89 -7.21,-5.18 -6.19,-6.19 -5.18,-7.21 -3.89,-7.85 -2.60,-8.49 -1.18,-8.68 0.24,-8.87 1.65,-8.60 3.06,-8.33 4.31,-7.62 5.56,-6.92 6.52,-5.85 7.48,-4.78 8.05,-3.46 8.62,-2.14 8.73,-0.70 8.85,0.72 8.50,2.11 8.15,3.51 7.38,4.72 6.61,5.93 5.49,6.83 4.36,7.73 3.02,8.22 1.67,8.72 0.23,8.76 -1.20,8.80 -2.57,8.37 -3.94,7.95 -5.11,7.11 -6.28,6.27 -6.28,6.28 -6.28,6.28 -6.94,5.43 -7.60,4.59 -8.04,3.61 -8.48,2.64 -8.67,1.58 -8.86,0.53 -8.80,-0.53 -8.73,-1.60 -8.41,-2.62 -8.09,-3.64 -7.54,-4.56 -6.99,-5.47 -6.23,-6.23 -5.47,-6.99 -4.56,-7.54 -3.64,-8.10 -2.62,-8.41 -1.60,-8.73 -0.53,-8.80 0.53,-8.86 1.59,-8.67 2.64,-8.48 3.61,-8.04 4.59,-7.60 5.43,-6.94 6.28,-6.28 6.28,-6.28 L 6.28,-6.28 Z"></path></g><g transform="translate(1144.3502040916806 532.6755280498) rotate(0 0.00005000000010113581 0.00004999999964638846)" stroke="none"><path fill="#1e1e1e" d="M 6.28,-6.28 Q 6.28,-6.28 7.11,-5.11 7.95,-3.94 8.37,-2.57 8.80,-1.19 8.76,0.23 8.72,1.67 8.22,3.02 7.73,4.37 6.83,5.49 5.93,6.61 4.72,7.38 3.50,8.15 2.11,8.50 0.72,8.85 -0.71,8.73 -2.14,8.61 -3.46,8.05 -4.78,7.48 -5.85,6.52 -6.92,5.56 -7.63,4.31 -8.33,3.06 -8.60,1.65 -8.87,0.23 -8.68,-1.18 -8.49,-2.60 -7.85,-3.89 -7.21,-5.18 -6.19,-6.19 -5.18,-7.21 -3.89,-7.85 -2.60,-8.49 -1.18,-8.68 0.24,-8.87 1.65,-8.60 3.06,-8.33 4.31,-7.62 5.56,-6.92 6.52,-5.85 7.48,-4.78 8.05,-3.46 8.62,-2.14 8.73,-0.70 8.85,0.72 8.50,2.11 8.15,3.51 7.38,4.72 6.61,5.93 5.49,6.83 4.36,7.73 3.02,8.22 1.67,8.72 0.23,8.76 -1.20,8.80 -2.57,8.37 -3.94,7.95 -5.11,7.11 -6.28,6.27 -6.28,6.28 -6.28,6.28 -6.94,5.43 -7.60,4.59 -8.04,3.61 -8.48,2.64 -8.67,1.58 -8.86,0.53 -8.80,-0.53 -8.73,-1.60 -8.41,-2.62 -8.09,-3.64 -7.54,-4.56 -6.99,-5.47 -6.23,-6.23 -5.47,-6.99 -4.56,-7.54 -3.64,-8.10 -2.62,-8.41 -1.60,-8.73 -0.53,-8.80 0.53,-8.86 1.59,-8.67 2.64,-8.48 3.61,-8.04 4.59,-7.60 5.43,-6.94 6.28,-6.28 6.28,-6.28 L 6.28,-6.28 Z"></path></g><g transform="translate(1142.797459126762 538.1102065071227) rotate(0 0.00005000000010113581 0.00004999999964638846)" stroke="none"><path fill="#1e1e1e" d="M 6.28,-6.28 Q 6.28,-6.28 7.11,-5.11 7.95,-3.94 8.37,-2.57 8.80,-1.19 8.76,0.23 8.72,1.67 8.22,3.02 7.73,4.37 6.83,5.49 5.93,6.61 4.72,7.38 3.50,8.15 2.11,8.50 0.72,8.85 -0.71,8.73 -2.14,8.61 -3.46,8.05 -4.78,7.48 -5.85,6.52 -6.92,5.56 -7.63,4.31 -8.33,3.06 -8.60,1.65 -8.87,0.23 -8.68,-1.18 -8.49,-2.60 -7.85,-3.89 -7.21,-5.18 -6.19,-6.19 -5.18,-7.21 -3.89,-7.85 -2.60,-8.49 -1.18,-8.68 0.24,-8.87 1.65,-8.60 3.06,-8.33 4.31,-7.62 5.56,-6.92 6.52,-5.85 7.48,-4.78 8.05,-3.46 8.62,-2.14 8.73,-0.70 8.85,0.72 8.50,2.11 8.15,3.51 7.38,4.72 6.61,5.93 5.49,6.83 4.36,7.73 3.02,8.22 1.67,8.72 0.23,8.76 -1.20,8.80 -2.57,8.37 -3.94,7.95 -5.11,7.11 -6.28,6.27 -6.28,6.28 -6.28,6.28 -6.94,5.43 -7.60,4.59 -8.04,3.61 -8.48,2.64 -8.67,1.58 -8.86,0.53 -8.80,-0.53 -8.73,-1.60 -8.41,-2.62 -8.09,-3.64 -7.54,-4.56 -6.99,-5.47 -6.23,-6.23 -5.47,-6.99 -4.56,-7.54 -3.64,-8.10 -2.62,-8.41 -1.60,-8.73 -0.53,-8.80 0.53,-8.86 1.59,-8.67 2.64,-8.48 3.61,-8.04 4.59,-7.60 5.43,-6.94 6.28,-6.28 6.28,-6.28 L 6.28,-6.28 Z"></path></g><g transform="translate(1173.2543381315331 473.84551283522705) rotate(0 215.40594482421875 45)"><text x="215.40594482421875" y="31.536" font-family="Virgil, Segoe UI Emoji" font-size="36px" fill="#2f9e44" text-anchor="middle" style="white-space: pre;" direction="ltr" dominant-baseline="alphabetic">Glückwunsch! </text><text x="215.40594482421875" y="76.536" font-family="Virgil, Segoe UI Emoji" font-size="36px" fill="#2f9e44" text-anchor="middle" style="white-space: pre;" direction="ltr" dominant-baseline="alphabetic">Du bist heute gut dran!</text></g><g stroke-linecap="round"><g transform="translate(1383.6388545945338 461.5514645043186) rotate(0 -81.51620892575579 -171.9675996363103)"><path d="M0.76 -0.29 C-26.63 -57.39, -136.34 -285.8, -163.82 -343.11 M-0.31 -1.48 C-27.36 -58.87, -134.6 -287.89, -161.52 -344.8" stroke="#e03131" stroke-width="4" fill="none"></path></g></g><mask></mask><g transform="translate(593.5022782384331 17.78023772456436) rotate(0 589.5225219726562 44.61181375877004)"><text x="589.5225219726562" y="31.263959082146044" font-family="Virgil, Segoe UI Emoji" font-size="35.68945100701603px" fill="#e03131" text-anchor="middle" style="white-space: pre;" direction="ltr" dominant-baseline="alphabetic">Eine kleine Meldung die denn Benutzer einen Motivations Schub gibt,</text><text x="589.5225219726562" y="75.87577284091608" font-family="Virgil, Segoe UI Emoji" font-size="35.68945100701603px" fill="#e03131" text-anchor="middle" style="white-space: pre;" direction="ltr" dominant-baseline="alphabetic"> um weiter an sich zu arbeiten</text></g><g stroke-linecap="round"><g transform="translate(885.8142224867397 396.8082467562235) rotate(0 -99.37717043705675 -59.781587420741744)"><path d="M-0.97 -0.27 C-34.1 -20.16, -166.62 -100.14, -199.39 -120.14 M0.73 -1.46 C-31.96 -21.13, -163.93 -99.26, -197.02 -118.9" stroke="#e03131" stroke-width="4" fill="none"></path></g></g><mask></mask><g transform="translate(193.33485051625803 175.15052670896875) rotate(0 410.6518249511719 45)"><text x="410.6518249511719" y="31.536" font-family="Virgil, Segoe UI Emoji" font-size="36px" fill="#e03131" text-anchor="middle" style="white-space: pre;" direction="ltr" dominant-baseline="alphabetic">Titel (Bezeichnung der Webpages)</text><text x="410.6518249511719" y="76.536" font-family="Virgil, Segoe UI Emoji" font-size="36px" fill="#e03131" text-anchor="middle" style="white-space: pre;" direction="ltr" dominant-baseline="alphabetic">BEnutzerfreundlich für die einfache Navigation</text></g><g stroke-linecap="round"><g transform="translate(913.764058335923 503.17291169562304) rotate(0 -90.8369665098428 -0.3881862412299597)"><path d="M1.02 -0.13 C-29.16 -0.13, -150.64 -0.34, -181 -0.43 M0.1 -1.24 C-30.18 -1.58, -151.3 -2.7, -181.59 -2.37" stroke="#e03131" stroke-width="4" fill="none"></path></g></g><mask></mask><g stroke-linecap="round"><g transform="translate(732.8665333387507 501.6201311906498) rotate(0 93.55428796847718 35.32549882273452)"><path d="M0.96 -0.39 C32.09 11.48, 155.62 59.26, 186.73 71.25 M0.01 -1.64 C30.94 9.88, 154.4 57.55, 185.58 69.45" stroke="#e03131" stroke-width="4" fill="none"></path></g></g><mask></mask><g stroke-linecap="round"><g transform="translate(733.6428702811559 500.06738622573175) rotate(0 93.94252751978797 71.81553859913129)"><path d="M1.09 -1.1 C32.05 22.63, 155.64 118.73, 186.86 142.95 M0.2 0.94 C31.43 24.76, 157.75 120.59, 189.03 144.13" stroke="#e03131" stroke-width="4" fill="none"></path></g></g><mask></mask><g stroke-linecap="round"><g transform="translate(738.3011762560195 503.17291169562304) rotate(0 90.8369665098428 109.4702081793248)"><path d="M0.56 -0.56 C30.62 36.17, 150.73 182.91, 180.97 219.6 M-0.61 1.75 C29.79 38.22, 152.97 181.85, 183.32 217.83" stroke="#e03131" stroke-width="4" fill="none"></path></g></g><mask></mask><g stroke-linecap="round"><g transform="translate(732.8665333387507 500.06738622573175) rotate(0 -28.33803986043904 -1.164576493716595)"><path d="M-0.85 -0.5 C-10.18 -1.01, -46.33 -2.87, -55.48 -3.24 M0.9 -1.81 C-8.52 -2.18, -46.3 -2.21, -55.81 -2.18" stroke="#e03131" stroke-width="4" fill="none"></path></g></g><mask></mask><g transform="translate(36.00543949680696 456.2016834757833) rotate(0 318.76190185546875 45)"><text x="318.76190185546875" y="31.536" font-family="Virgil, Segoe UI Emoji" font-size="36px" fill="#e03131" text-anchor="middle" style="white-space: pre;" direction="ltr" dominant-baseline="alphabetic">Listet alle erstellten Aufgaben </text><text x="318.76190185546875" y="76.536" font-family="Virgil, Segoe UI Emoji" font-size="36px" fill="#e03131" text-anchor="middle" style="white-space: pre;" direction="ltr" dominant-baseline="alphabetic">die der Benutzer abgeschlossen hat</text></g><g stroke-linecap="round"><g transform="translate(1097.7671443430377 750.839500845852) rotate(0 -33.77271831776193 50.076806999813016)"><path d="M-0.18 0.33 C-11.47 17.09, -57.06 84.07, -68.18 100.89 M-1.74 -0.54 C-12.59 15.84, -54.87 82.49, -65.8 99.16" stroke="#e03131" stroke-width="4" fill="none"></path></g></g><mask></mask><g transform="translate(134.90433165089144 865.7444052525261) rotate(0 564.9658203125 45)"><text x="564.9658203125" y="31.536" font-family="Virgil, Segoe UI Emoji" font-size="36px" fill="#e03131" text-anchor="middle" style="white-space: pre;" direction="ltr" dominant-baseline="alphabetic">Ein Checkmark ist optisch gesehen motivationsfähiger als Nichts</text><text x="564.9658203125" y="76.536" font-family="Virgil, Segoe UI Emoji" font-size="36px" fill="#e03131" text-anchor="middle" style="white-space: pre;" direction="ltr" dominant-baseline="alphabetic">oder sogar eine roter Kreuz</text></g><g stroke-linecap="round"><g transform="translate(1147.8439335728226 531.5109337860322) rotate(0 130.8207713074412 162.65251399398676)"><path d="M0.83 1.13 C44.61 55.39, 219.46 270.83, 262.81 324.96 M-0.2 0.68 C43.52 55.16, 218.54 272.45, 262.48 326.32" stroke="#e03131" stroke-width="4" fill="none"></path></g></g><mask></mask><g transform="translate(1375.6389085173078 871.5672877211109) rotate(0 392.14788818359375 45)"><text x="392.14788818359375" y="31.536" font-family="Virgil, Segoe UI Emoji" font-size="36px" fill="#e03131" text-anchor="middle" style="white-space: pre;" direction="ltr" dominant-baseline="alphabetic">Einfache Scrolling Funktion für das Auflisten</text><text x="392.14788818359375" y="76.536" font-family="Virgil, Segoe UI Emoji" font-size="36px" fill="#e03131" text-anchor="middle" style="white-space: pre;" direction="ltr" dominant-baseline="alphabetic">mehrerer Aufgaben</text></g><g stroke-linecap="round" transform="translate(1287.5930417386262 583.1404857507641) rotate(0 143.63111273831646 47.35945000112315)"><path d="M23.68 0 C92.23 -0.55, 161.02 1.46, 263.58 0 M23.68 0 C105.91 0.5, 188.09 -0.65, 263.58 0 M263.58 0 C280.45 0.16, 286.52 7.22, 287.26 23.68 M263.58 0 C280.44 0.75, 288.92 6.54, 287.26 23.68 M287.26 23.68 C285.58 34.77, 286.43 49.24, 287.26 71.04 M287.26 23.68 C286.9 39.57, 287.22 57.47, 287.26 71.04 M287.26 71.04 C287.08 88.71, 280.67 93.08, 263.58 94.72 M287.26 71.04 C289.56 85.47, 280.71 92.71, 263.58 94.72 M263.58 94.72 C190.55 97.28, 117.3 95.55, 23.68 94.72 M263.58 94.72 C202.28 95.65, 141.06 96.43, 23.68 94.72 M23.68 94.72 C6.86 96.2, 0.86 87.12, 0 71.04 M23.68 94.72 C6.84 95.78, 0.57 84.53, 0 71.04 M0 71.04 C-0.7 58.86, 0.29 49.13, 0 23.68 M0 71.04 C0.56 55.42, -1.26 41.12, 0 23.68 M0 23.68 C-0.58 9.87, 6.77 0.57, 23.68 0 M0 23.68 C-0.29 9.38, 5.75 -0.34, 23.68 0" stroke="#1e1e1e" stroke-width="4" fill="none"></path></g><g transform="translate(1301.0614343967754 585.4696031981402) rotate(0 128.6099395751953 45)"><text x="128.6099395751953" y="31.536" font-family="Virgil, Segoe UI Emoji" font-size="36px" fill="#1e1e1e" text-anchor="middle" style="white-space: pre;" direction="ltr" dominant-baseline="alphabetic">Neue Aufgabe</text><text x="128.6099395751953" y="76.536" font-family="Virgil, Segoe UI Emoji" font-size="36px" fill="#1e1e1e" text-anchor="middle" style="white-space: pre;" direction="ltr" dominant-baseline="alphabetic">abgeschlossen?</text></g><g stroke-linecap="round" transform="translate(1842.3966421661357 344.30309801937074) rotate(0 394.0150411172149 225.53965353966123)"><path d="M32 0 C195.99 1.14, 359.76 1.18, 756.03 0 M32 0 C208.89 2.36, 385.65 2.44, 756.03 0 M756.03 0 C775.89 0.75, 788.7 11.36, 788.03 32 M756.03 0 C775.59 -0.42, 789.09 8.96, 788.03 32 M788.03 32 C789.62 154.67, 789.77 278.16, 788.03 419.08 M788.03 32 C788.91 169.82, 788.2 306.01, 788.03 419.08 M788.03 419.08 C786.94 439.17, 777.99 451.05, 756.03 451.08 M788.03 419.08 C789.58 440.34, 779.18 449.25, 756.03 451.08 M756.03 451.08 C500.03 452.33, 245.07 451.77, 32 451.08 M756.03 451.08 C481.58 449.06, 206.98 449.21, 32 451.08 M32 451.08 C10.62 450.28, 0.36 441.73, 0 419.08 M32 451.08 C10.9 449.89, 0.94 438.52, 0 419.08 M0 419.08 C-2.23 289.34, -0.54 161.02, 0 32 M0 419.08 C0.88 337.88, 1.69 256.33, 0 32 M0 32 C0.13 12.66, 11.14 0.55, 32 0 M0 32 C-2.08 9.51, 9.23 -0.36, 32 0" stroke="#1e1e1e" stroke-width="4" fill="none"></path></g><g transform="translate(1882.9914940429721 289.9213757795187) rotate(0 166.80593872070312 22.5)"><text x="166.80593872070312" y="31.536" font-family="Virgil, Segoe UI Emoji" font-size="36px" fill="#1e1e1e" text-anchor="middle" style="white-space: pre;" direction="ltr" dominant-baseline="alphabetic">Aufgabe hinzufügen</text></g><g transform="translate(1872.6238774859075 388.3750303060897) rotate(0 218.04585064054436 29.41161254232611)"><text x="218.04585064054442" y="41.223316139323735" font-family="Virgil, Segoe UI Emoji" font-size="47.05858006772116px" fill="#1e1e1e" text-anchor="middle" style="white-space: pre;" direction="ltr" dominant-baseline="alphabetic">Aufgabe hinzufügen</text></g><g mask="url(#mask-0VaRJ5AelLrUWmZxzhREy)" stroke-linecap="round"><g transform="translate(1576.3501148247296 621.6800433700555) rotate(0 131.3211919862067 -2.5918645905512676)"><path d="M-0.25 0.66 C43.36 -0.46, 218.87 -5.07, 262.69 -6.06 M1.82 -0.04 C45.18 -1.08, 218.42 -4.33, 261.76 -4.98" stroke="#f08c00" stroke-width="4" fill="none"></path></g><g transform="translate(1576.3501148247296 621.6800433700555) rotate(0 131.3211919862067 -2.5918645905512676)"><path d="M238.42 3.98 C248.49 0.64, 254.96 -2.89, 261.76 -4.98 M238.42 3.98 C245.8 0.58, 251.66 -1.59, 261.76 -4.98" stroke="#f08c00" stroke-width="4" fill="none"></path></g><g transform="translate(1576.3501148247296 621.6800433700555) rotate(0 131.3211919862067 -2.5918645905512676)"><path d="M238.13 -13.12 C248.4 -9.85, 254.99 -6.77, 261.76 -4.98 M238.13 -13.12 C245.68 -11.46, 251.63 -8.57, 261.76 -4.98" stroke="#f08c00" stroke-width="4" fill="none"></path></g></g><mask id="mask-0VaRJ5AelLrUWmZxzhREy"><rect x="0" y="0" fill="#fff" width="1938.992498797143" height="726.863772551158"></rect><rect x="1662.8693353753897" y="596.5881787795042" fill="#000" width="89.60394287109375" height="45" opacity="1"></rect></mask><g transform="translate(1662.8693353753897 596.5881787795042) rotate(0 44.69815531633776 22.392109665646785)"><text x="44.801971435546875" y="31.536" font-family="Virgil, Segoe UI Emoji" font-size="36px" fill="#f08c00" text-anchor="middle" style="white-space: pre;" direction="ltr" dominant-baseline="alphabetic">*click</text></g><g stroke-linecap="round" transform="translate(2118.9135581869364 448.889017935031) rotate(0 146.87237952951273 51.837291811021714)"><path d="M25.92 0 C121.27 -2.8, 214.86 -0.86, 267.83 0 M25.92 0 C81.64 0.31, 137.64 0.9, 267.83 0 M267.83 0 C285.37 -0.95, 294.52 8.71, 293.74 25.92 M267.83 0 C286.5 0.6, 293.61 10.23, 293.74 25.92 M293.74 25.92 C292.78 40.61, 293.81 52.64, 293.74 77.76 M293.74 25.92 C293.02 40.05, 292.63 54.54, 293.74 77.76 M293.74 77.76 C292.78 94.13, 286.69 101.92, 267.83 103.67 M293.74 77.76 C292.35 96.65, 286.65 105.26, 267.83 103.67 M267.83 103.67 C202.82 100.28, 134.61 101.39, 25.92 103.67 M267.83 103.67 C216.73 104.09, 166.95 103.91, 25.92 103.67 M25.92 103.67 C7.75 103.3, 1.15 95.89, 0 77.76 M25.92 103.67 C8.01 105.05, 0.9 95.72, 0 77.76 M0 77.76 C0.16 61.76, 0.04 43.84, 0 25.92 M0 77.76 C0.9 61.87, 0.9 47.35, 0 25.92 M0 25.92 C-0.52 9.97, 7.65 0.5, 25.92 0 M0 25.92 C2.11 7.34, 9.25 0.91, 25.92 0" stroke="#1e1e1e" stroke-width="4" fill="none"></path></g><g transform="translate(1885.6944911830146 459.25655539466607) rotate(0 105.35395812988281 45)"><text x="105.35395812988281" y="31.536" font-family="Virgil, Segoe UI Emoji" font-size="36px" fill="#1e1e1e" text-anchor="middle" style="white-space: pre;" direction="ltr" dominant-baseline="alphabetic">Aufgaben </text><text x="105.35395812988281" y="76.536" font-family="Virgil, Segoe UI Emoji" font-size="36px" fill="#1e1e1e" text-anchor="middle" style="white-space: pre;" direction="ltr" dominant-baseline="alphabetic">Bezeichnung:</text></g><g transform="translate(2160.3837080254734 523.1891889291146) rotate(0 0.00005000000010113581 0.00004999999964638846)" stroke="none"><path fill="#1e1e1e" d="M 3.14,-3.14 Q 3.14,-3.14 3.55,-2.55 3.97,-1.97 4.18,-1.28 4.40,-0.59 4.38,0.11 4.36,0.83 4.11,1.51 3.86,2.18 3.41,2.74 2.96,3.30 2.36,3.69 1.75,4.08 1.05,4.25 0.36,4.42 -0.35,4.36 -1.07,4.31 -1.73,4.02 -2.39,3.74 -2.92,3.26 -3.46,2.78 -3.81,2.15 -4.16,1.53 -4.30,0.82 -4.43,0.11 -4.34,-0.59 -4.24,-1.30 -3.92,-1.94 -3.60,-2.59 -3.09,-3.09 -2.59,-3.60 -1.94,-3.92 -1.30,-4.24 -0.59,-4.34 0.12,-4.43 0.82,-4.30 1.53,-4.16 2.15,-3.81 2.78,-3.46 3.26,-2.92 3.74,-2.39 4.02,-1.73 4.31,-1.07 4.36,-0.35 4.42,0.36 4.25,1.05 4.07,1.75 3.69,2.36 3.30,2.96 2.74,3.41 2.18,3.86 1.51,4.11 0.83,4.36 0.11,4.38 -0.60,4.40 -1.28,4.18 -1.97,3.97 -2.55,3.55 -3.14,3.13 -3.14,3.14 -3.14,3.14 -3.47,2.71 -3.80,2.29 -4.02,1.80 -4.24,1.32 -4.33,0.79 -4.43,0.26 -4.40,-0.26 -4.36,-0.80 -4.20,-1.31 -4.04,-1.82 -3.77,-2.28 -3.49,-2.73 -3.11,-3.11 -2.73,-3.49 -2.28,-3.77 -1.82,-4.05 -1.31,-4.20 -0.80,-4.36 -0.26,-4.40 0.26,-4.43 0.79,-4.33 1.32,-4.24 1.80,-4.02 2.29,-3.80 2.71,-3.47 3.14,-3.14 3.14,-3.14 L 3.14,-3.14 Z"></path></g><g transform="translate(2203.5813457380837 523.1891889291146) rotate(0 0.00005000000010113581 0.00004999999964638846)" stroke="none"><path fill="#1e1e1e" d="M 3.14,-3.14 Q 3.14,-3.14 3.55,-2.55 3.97,-1.97 4.18,-1.28 4.40,-0.59 4.38,0.11 4.36,0.83 4.11,1.51 3.86,2.18 3.41,2.74 2.96,3.30 2.36,3.69 1.75,4.08 1.05,4.25 0.36,4.42 -0.35,4.36 -1.07,4.31 -1.73,4.02 -2.39,3.74 -2.92,3.26 -3.46,2.78 -3.81,2.15 -4.16,1.53 -4.30,0.82 -4.43,0.11 -4.34,-0.59 -4.24,-1.30 -3.92,-1.94 -3.60,-2.59 -3.09,-3.09 -2.59,-3.60 -1.94,-3.92 -1.30,-4.24 -0.59,-4.34 0.12,-4.43 0.82,-4.30 1.53,-4.16 2.15,-3.81 2.78,-3.46 3.26,-2.92 3.74,-2.39 4.02,-1.73 4.31,-1.07 4.36,-0.35 4.42,0.36 4.25,1.05 4.07,1.75 3.69,2.36 3.30,2.96 2.74,3.41 2.18,3.86 1.51,4.11 0.83,4.36 0.11,4.38 -0.60,4.40 -1.28,4.18 -1.97,3.97 -2.55,3.55 -3.14,3.13 -3.14,3.14 -3.14,3.14 -3.47,2.71 -3.80,2.29 -4.02,1.80 -4.24,1.32 -4.33,0.79 -4.43,0.26 -4.40,-0.26 -4.36,-0.80 -4.20,-1.31 -4.04,-1.82 -3.77,-2.28 -3.49,-2.73 -3.11,-3.11 -2.73,-3.49 -2.28,-3.77 -1.82,-4.05 -1.31,-4.20 -0.80,-4.36 -0.26,-4.40 0.26,-4.43 0.79,-4.33 1.32,-4.24 1.80,-4.02 2.29,-3.80 2.71,-3.47 3.14,-3.14 3.14,-3.14 L 3.14,-3.14 Z"></path></g><g transform="translate(2248.5071041042092 521.461305567891) rotate(0 0.00005000000010113581 0.00004999999964638846)" stroke="none"><path fill="#1e1e1e" d="M 3.14,-3.14 Q 3.14,-3.14 3.55,-2.55 3.97,-1.97 4.18,-1.28 4.40,-0.59 4.38,0.11 4.36,0.83 4.11,1.51 3.86,2.18 3.41,2.74 2.96,3.30 2.36,3.69 1.75,4.08 1.05,4.25 0.36,4.42 -0.35,4.36 -1.07,4.31 -1.73,4.02 -2.39,3.74 -2.92,3.26 -3.46,2.78 -3.81,2.15 -4.16,1.53 -4.30,0.82 -4.43,0.11 -4.34,-0.59 -4.24,-1.30 -3.92,-1.94 -3.60,-2.59 -3.09,-3.09 -2.59,-3.60 -1.94,-3.92 -1.30,-4.24 -0.59,-4.34 0.12,-4.43 0.82,-4.30 1.53,-4.16 2.15,-3.81 2.78,-3.46 3.26,-2.92 3.74,-2.39 4.02,-1.73 4.31,-1.07 4.36,-0.35 4.42,0.36 4.25,1.05 4.07,1.75 3.69,2.36 3.30,2.96 2.74,3.41 2.18,3.86 1.51,4.11 0.83,4.36 0.11,4.38 -0.60,4.40 -1.28,4.18 -1.97,3.97 -2.55,3.55 -3.14,3.13 -3.14,3.14 -3.14,3.14 -3.47,2.71 -3.80,2.29 -4.02,1.80 -4.24,1.32 -4.33,0.79 -4.43,0.26 -4.40,-0.26 -4.36,-0.80 -4.20,-1.31 -4.04,-1.82 -3.77,-2.28 -3.49,-2.73 -3.11,-3.11 -2.73,-3.49 -2.28,-3.77 -1.82,-4.05 -1.31,-4.20 -0.80,-4.36 -0.26,-4.40 0.26,-4.43 0.79,-4.33 1.32,-4.24 1.80,-4.02 2.29,-3.80 2.71,-3.47 3.14,-3.14 3.14,-3.14 L 3.14,-3.14 Z"></path></g><g stroke-linecap="round" transform="translate(2251.9627126317973 599.21716418699) rotate(0 138.2328045285326 50)"><path d="M25 0 C79.94 2.69, 131.71 2.59, 251.47 0 M25 0 C93.44 -1.23, 161.55 -1.51, 251.47 0 M251.47 0 C269.09 -0.32, 278 10.21, 276.47 25 M251.47 0 C269.38 -0.81, 277.48 7.68, 276.47 25 M276.47 25 C274.54 41.13, 277.86 57.75, 276.47 75 M276.47 25 C276.57 44.32, 276.08 61.17, 276.47 75 M276.47 75 C277.04 92.4, 268.99 99.67, 251.47 100 M276.47 75 C276.52 93.9, 268.19 98.5, 251.47 100 M251.47 100 C169.72 100.4, 84.54 101.24, 25 100 M251.47 100 C193.28 100.98, 134.65 102.33, 25 100 M25 100 C8.67 101.85, -0.19 92.77, 0 75 M25 100 C7.86 98.2, -0.56 92.06, 0 75 M0 75 C0.83 59.35, -1.25 46.87, 0 25 M0 75 C-1.18 58.9, -1.27 43.8, 0 25 M0 25 C-0.64 8.08, 8.08 0.68, 25 0 M0 25 C-0.33 7.93, 8.77 0.2, 25 0" stroke="#2f9e44" stroke-width="4" fill="none"></path></g><g transform="translate(2302.1575532931424 604.21716418699) rotate(0 88.0379638671875 45)"><text x="88.0379638671875" y="31.536" font-family="Virgil, Segoe UI Emoji" font-size="36px" fill="#2f9e44" text-anchor="middle" style="white-space: pre;" direction="ltr" dominant-baseline="alphabetic">Aufgabe </text><text x="88.0379638671875" y="76.536" font-family="Virgil, Segoe UI Emoji" font-size="36px" fill="#2f9e44" text-anchor="middle" style="white-space: pre;" direction="ltr" dominant-baseline="alphabetic">Hinzufügen</text></g><g transform="translate(2298.6164334565756 519.7333431092375) rotate(0 0.00005000000010113581 0.00004999999964638846)" stroke="none"><path fill="#1e1e1e" d="M 3.14,-3.14 Q 3.14,-3.14 3.55,-2.55 3.97,-1.97 4.18,-1.28 4.40,-0.59 4.38,0.11 4.36,0.83 4.11,1.51 3.86,2.18 3.41,2.74 2.96,3.30 2.36,3.69 1.75,4.08 1.05,4.25 0.36,4.42 -0.35,4.36 -1.07,4.31 -1.73,4.02 -2.39,3.74 -2.92,3.26 -3.46,2.78 -3.81,2.15 -4.16,1.53 -4.30,0.82 -4.43,0.11 -4.34,-0.59 -4.24,-1.30 -3.92,-1.94 -3.60,-2.59 -3.09,-3.09 -2.59,-3.60 -1.94,-3.92 -1.30,-4.24 -0.59,-4.34 0.12,-4.43 0.82,-4.30 1.53,-4.16 2.15,-3.81 2.78,-3.46 3.26,-2.92 3.74,-2.39 4.02,-1.73 4.31,-1.07 4.36,-0.35 4.42,0.36 4.25,1.05 4.07,1.75 3.69,2.36 3.30,2.96 2.74,3.41 2.18,3.86 1.51,4.11 0.83,4.36 0.11,4.38 -0.60,4.40 -1.28,4.18 -1.97,3.97 -2.55,3.55 -3.14,3.13 -3.14,3.14 -3.14,3.14 -3.47,2.71 -3.80,2.29 -4.02,1.80 -4.24,1.32 -4.33,0.79 -4.43,0.26 -4.40,-0.26 -4.36,-0.80 -4.20,-1.31 -4.04,-1.82 -3.77,-2.28 -3.49,-2.73 -3.11,-3.11 -2.73,-3.49 -2.28,-3.77 -1.82,-4.05 -1.31,-4.20 -0.80,-4.36 -0.26,-4.40 0.26,-4.43 0.79,-4.33 1.32,-4.24 1.80,-4.02 2.29,-3.80 2.71,-3.47 3.14,-3.14 3.14,-3.14 L 3.14,-3.14 Z"></path></g><g transform="translate(2357.365416907353 516.2775763867885) rotate(0 0.00005000000010113581 0.00004999999964638846)" stroke="none"><path fill="#1e1e1e" d="M 3.14,-3.14 Q 3.14,-3.14 3.55,-2.55 3.97,-1.97 4.18,-1.28 4.40,-0.59 4.38,0.11 4.36,0.83 4.11,1.51 3.86,2.18 3.41,2.74 2.96,3.30 2.36,3.69 1.75,4.08 1.05,4.25 0.36,4.42 -0.35,4.36 -1.07,4.31 -1.73,4.02 -2.39,3.74 -2.92,3.26 -3.46,2.78 -3.81,2.15 -4.16,1.53 -4.30,0.82 -4.43,0.11 -4.34,-0.59 -4.24,-1.30 -3.92,-1.94 -3.60,-2.59 -3.09,-3.09 -2.59,-3.60 -1.94,-3.92 -1.30,-4.24 -0.59,-4.34 0.12,-4.43 0.82,-4.30 1.53,-4.16 2.15,-3.81 2.78,-3.46 3.26,-2.92 3.74,-2.39 4.02,-1.73 4.31,-1.07 4.36,-0.35 4.42,0.36 4.25,1.05 4.07,1.75 3.69,2.36 3.30,2.96 2.74,3.41 2.18,3.86 1.51,4.11 0.83,4.36 0.11,4.38 -0.60,4.40 -1.28,4.18 -1.97,3.97 -2.55,3.55 -3.14,3.13 -3.14,3.14 -3.14,3.14 -3.47,2.71 -3.80,2.29 -4.02,1.80 -4.24,1.32 -4.33,0.79 -4.43,0.26 -4.40,-0.26 -4.36,-0.80 -4.20,-1.31 -4.04,-1.82 -3.77,-2.28 -3.49,-2.73 -3.11,-3.11 -2.73,-3.49 -2.28,-3.77 -1.82,-4.05 -1.31,-4.20 -0.80,-4.36 -0.26,-4.40 0.26,-4.43 0.79,-4.33 1.32,-4.24 1.80,-4.02 2.29,-3.80 2.71,-3.47 3.14,-3.14 3.14,-3.14 L 3.14,-3.14 Z"></path></g><g stroke-linecap="round"><g transform="translate(2227.7721873798005 378.04477185825635) rotate(0 19.870935495081312 -82.0757252170215)"><path d="M-0.11 0.46 C6.44 -27.08, 32.76 -137.49, 39.23 -164.91 M-1.63 -0.34 C4.72 -27.78, 30.9 -136.71, 38.01 -163.76" stroke="#e03131" stroke-width="4" fill="none"></path></g></g><mask></mask><g transform="translate(1929.9924902377552 113.60018379331268) rotate(0 408.3658142089844 45)"><text x="408.3658142089844" y="31.536" font-family="Virgil, Segoe UI Emoji" font-size="36px" fill="#e03131" text-anchor="middle" style="white-space: pre;" direction="ltr" dominant-baseline="alphabetic">Titel (Bezeichnung der Webpages)</text><text x="408.3658142089844" y="76.536" font-family="Virgil, Segoe UI Emoji" font-size="36px" fill="#e03131" text-anchor="middle" style="white-space: pre;" direction="ltr" dominant-baseline="alphabetic">Benutzerfreundlich für die einfache Navigation</text></g><g stroke-linecap="round"><g transform="translate(1879.5982719192034 479.9914721190671) rotate(0 -55.293098082184315 -71.70826685481734)"><path d="M-0.11 -1.18 C-18.59 -25.29, -91.7 -120.3, -110.1 -144.15 M-1.63 0.82 C-20.29 -23.2, -92.53 -118.96, -110.79 -143" stroke="#e03131" stroke-width="4" fill="none"></path></g></g><mask></mask><g transform="translate(1464.9260398782367 229.44450896751368) rotate(0 190.04391479492188 45)"><text x="190.04391479492188" y="31.536" font-family="Virgil, Segoe UI Emoji" font-size="36px" fill="#e03131" text-anchor="middle" style="white-space: pre;" direction="ltr" dominant-baseline="alphabetic">Benutzerfreundliches </text><text x="190.04391479492188" y="76.536" font-family="Virgil, Segoe UI Emoji" font-size="36px" fill="#e03131" text-anchor="middle" style="white-space: pre;" direction="ltr" dominant-baseline="alphabetic">Eingabe Anforderung</text></g><g stroke-linecap="round" transform="translate(1442.4371373454028 208.70959224310536) rotate(0 207.3491672440839 62.204750173224966)"><path d="M31.1 0 C105.46 2.66, 181.28 2.77, 383.6 0 M31.1 0 C142.12 -1.08, 252.51 -1.51, 383.6 0 M383.6 0 C404.07 -1.36, 413.28 9.03, 414.7 31.1 M383.6 0 C403.16 1.15, 413.82 9.95, 414.7 31.1 M414.7 31.1 C412.64 50.74, 412.51 73.24, 414.7 93.31 M414.7 31.1 C413.93 45.44, 413.61 59.84, 414.7 93.31 M414.7 93.31 C413.95 114.81, 405.64 124.95, 383.6 124.41 M414.7 93.31 C415.4 114.22, 404.63 124.49, 383.6 124.41 M383.6 124.41 C268.72 123.79, 155.29 123.56, 31.1 124.41 M383.6 124.41 C268.57 122.47, 153.19 122.5, 31.1 124.41 M31.1 124.41 C8.77 126.26, 0.66 115.21, 0 93.31 M31.1 124.41 C11.94 126.06, -0.29 113.18, 0 93.31 M0 93.31 C-1.61 76.34, -1.83 55.19, 0 31.1 M0 93.31 C-0.47 74.06, -1.41 55.07, 0 31.1 M0 31.1 C-1.77 8.94, 8.95 -0.65, 31.1 0 M0 31.1 C-1.66 8.42, 8.99 -0.13, 31.1 0" stroke="#e03131" stroke-width="4" fill="none"></path></g><g stroke-linecap="round" transform="translate(1898.6053843798177 82.57220853543004) rotate(0 438.8890179350244 67.3884793543275)"><path d="M32 0 C278.95 2.56, 524.97 1.47, 845.78 0 M32 0 C265.07 0.86, 497.92 0.56, 845.78 0 M845.78 0 C865.12 -1.69, 878.78 11.77, 877.78 32 M845.78 0 C866.01 -1.88, 880.02 8.51, 877.78 32 M877.78 32 C879.52 58.65, 880.24 83.61, 877.78 102.78 M877.78 32 C876.92 55.06, 878.4 77.72, 877.78 102.78 M877.78 102.78 C879.65 123.35, 868.42 134, 845.78 134.78 M877.78 102.78 C877.49 123.49, 866.26 132.51, 845.78 134.78 M845.78 134.78 C627.24 132.7, 408.81 132.95, 32 134.78 M845.78 134.78 C621.54 135.13, 396.77 135.04, 32 134.78 M32 134.78 C11.48 136.06, -0.31 123.2, 0 102.78 M32 134.78 C9.34 134.45, 2.21 122.88, 0 102.78 M0 102.78 C0.01 80.42, 0.18 59.37, 0 32 M0 102.78 C-0.12 85.15, 0.29 66.4, 0 32 M0 32 C1.62 12.34, 10.44 -0.89, 32 0 M0 32 C1.45 12.1, 9.07 -0.87, 32 0" stroke="#e03131" stroke-width="4" fill="none"></path></g><g stroke-linecap="round" transform="translate(562.9310599192704 10) rotate(0 621.1835996003551 54.42915640157207)"><path d="M27.21 0 C401.87 0.1, 776.61 -0.93, 1215.15 0 M27.21 0 C459.35 0.31, 891.27 0.41, 1215.15 0 M1215.15 0 C1232.34 -0.78, 1244.29 9.48, 1242.37 27.21 M1215.15 0 C1232.47 2.22, 1243.98 9.08, 1242.37 27.21 M1242.37 27.21 C1243.48 47.49, 1241.97 68.37, 1242.37 81.64 M1242.37 27.21 C1243.76 46.98, 1242.81 68.44, 1242.37 81.64 M1242.37 81.64 C1240.81 98.88, 1234.16 108.54, 1215.15 108.86 M1242.37 81.64 C1240.2 97.74, 1233.07 107.57, 1215.15 108.86 M1215.15 108.86 C850.63 113.93, 484.77 112.82, 27.21 108.86 M1215.15 108.86 C804.24 103.83, 393.02 103.88, 27.21 108.86 M27.21 108.86 C7.56 110.78, -1.68 100.86, 0 81.64 M27.21 108.86 C7.19 108.68, -1.34 99.88, 0 81.64 M0 81.64 C0.16 62.38, -1.49 47.63, 0 27.21 M0 81.64 C-0.5 66.05, 0.5 49.05, 0 27.21 M0 27.21 C-1.49 9.9, 10.12 1.31, 27.21 0 M0 27.21 C0.72 8.75, 10.7 -0.86, 27.21 0" stroke="#e03131" stroke-width="4" fill="none"></path></g><g stroke-linecap="round" transform="translate(168.96764215551116 141.32111288877786) rotate(0 432.8413866220254 71.70826685481734)"><path d="M32 0 C232.44 -2.45, 432.4 -2.42, 833.68 0 M32 0 C217.48 1.23, 402.85 0.6, 833.68 0 M833.68 0 C856.56 1.15, 867.23 8.97, 865.68 32 M833.68 0 C853.87 0.52, 865.74 10.33, 865.68 32 M865.68 32 C863.64 47.04, 863.31 63.02, 865.68 111.42 M865.68 32 C865.83 54.63, 865.29 76.34, 865.68 111.42 M865.68 111.42 C864.29 134.65, 856.64 144.61, 833.68 143.42 M865.68 111.42 C866.14 130.9, 857.19 143.49, 833.68 143.42 M833.68 143.42 C665.44 139.97, 497.48 140.68, 32 143.42 M833.68 143.42 C595.99 144, 357.96 143.72, 32 143.42 M32 143.42 C12.09 144.98, 1.31 132.68, 0 111.42 M32 143.42 C11.56 144.19, -1.25 131.04, 0 111.42 M0 111.42 C1.92 89.2, 1.16 66.11, 0 32 M0 111.42 C0.65 81.56, 1.36 51.59, 0 32 M0 32 C0.63 11.89, 10.83 1.68, 32 0 M0 32 C-1.08 11.97, 12.8 -2.14, 32 0" stroke="#e03131" stroke-width="4" fill="none"></path></g><g stroke-linecap="round" transform="translate(10 443.705367851353) rotate(0 336.9423967716366 61.34076894389818)"><path d="M30.67 0 C234.32 0.16, 438.7 -0.87, 643.21 0 M30.67 0 C272.84 -1.45, 515.46 -1.76, 643.21 0 M643.21 0 C663.57 1.72, 673.87 11.93, 673.88 30.67 M643.21 0 C663.41 -0.67, 674 11.41, 673.88 30.67 M673.88 30.67 C674.8 46.11, 672.68 62.54, 673.88 92.01 M673.88 30.67 C673.69 50.21, 672.46 70.12, 673.88 92.01 M673.88 92.01 C673.9 111.49, 663.09 121.53, 643.21 122.68 M673.88 92.01 C673.59 110.89, 661.48 122.18, 643.21 122.68 M643.21 122.68 C482.39 122.01, 321.02 121.87, 30.67 122.68 M643.21 122.68 C489.28 123.79, 334.82 123.92, 30.67 122.68 M30.67 122.68 C12.05 121.65, -1.28 114.44, 0 92.01 M30.67 122.68 C12.22 123.04, -0.42 112.18, 0 92.01 M0 92.01 C2.29 71.96, 0.64 50.85, 0 30.67 M0 92.01 C0.6 75.99, 0.34 58.54, 0 30.67 M0 30.67 C0.76 10.31, 11.93 0.28, 30.67 0 M0 30.67 C0.52 11.1, 8.73 -0.38, 30.67 0" stroke="#e03131" stroke-width="4" fill="none"></path></g><g stroke-linecap="round" transform="translate(115.40246698326587 857.5397211101954) rotate(0 591.8090683262513 62.204750173224966)"><path d="M31.1 0 C419.77 -2.37, 810.31 -3.09, 1152.52 0 M31.1 0 C378.38 2.42, 726.08 2.97, 1152.52 0 M1152.52 0 C1171.61 -1.46, 1183.44 11.5, 1183.62 31.1 M1152.52 0 C1174.74 -0.4, 1185.55 10.06, 1183.62 31.1 M1183.62 31.1 C1184.77 47.69, 1184.46 64, 1183.62 93.31 M1183.62 31.1 C1183.07 47.16, 1183.69 65.25, 1183.62 93.31 M1183.62 93.31 C1183.27 113.39, 1172.57 126.17, 1152.52 124.41 M1183.62 93.31 C1183.78 114.35, 1172.24 122.87, 1152.52 124.41 M1152.52 124.41 C795.36 125.68, 437.06 126.68, 31.1 124.41 M1152.52 124.41 C870.19 120.59, 588.25 121.09, 31.1 124.41 M31.1 124.41 C8.58 125.72, -0.71 115.19, 0 93.31 M31.1 124.41 C11.09 123.69, -1.53 115.91, 0 93.31 M0 93.31 C-0.68 79.77, 1.77 63.4, 0 31.1 M0 93.31 C-0.41 78.43, 0.04 63.45, 0 31.1 M0 31.1 C1.7 10.17, 9.52 -1.05, 31.1 0 M0 31.1 C-1.9 9.77, 8.65 -1.65, 31.1 0" stroke="#e03131" stroke-width="4" fill="none"></path></g><g stroke-linecap="round" transform="translate(1364.681278726302 867.9071794724005) rotate(0 416.4262969468223 52.70123349163259)"><path d="M26.35 0 C328.68 -0.41, 631.62 -0.98, 806.5 0 M26.35 0 C279.41 -1.7, 532.8 -1.28, 806.5 0 M806.5 0 C822.51 -1.23, 834.56 7.62, 832.85 26.35 M806.5 0 C824.05 -1.49, 832.35 9.35, 832.85 26.35 M832.85 26.35 C830.8 41.09, 834.47 52.23, 832.85 79.05 M832.85 26.35 C831.92 44.42, 832.4 61.54, 832.85 79.05 M832.85 79.05 C832.42 96.96, 825.99 106.88, 806.5 105.4 M832.85 79.05 C833.22 97.84, 822.63 105.11, 806.5 105.4 M806.5 105.4 C555.83 104, 305.18 103.79, 26.35 105.4 M806.5 105.4 C556.86 104.38, 308.08 104.3, 26.35 105.4 M26.35 105.4 C8.91 106.17, 1.45 97.24, 0 79.05 M26.35 105.4 C9.37 103.45, -1.58 97.04, 0 79.05 M0 79.05 C1.33 57.99, -1.91 38.34, 0 26.35 M0 79.05 C0.68 61.55, -0.3 43.66, 0 26.35 M0 26.35 C-1.74 7.75, 7.02 -0.17, 26.35 0 M0 26.35 C0.97 10.08, 6.96 0.7, 26.35 0" stroke="#e03131" stroke-width="4" fill="none"></path></g><g stroke-linecap="round"><g transform="translate(2417.842204621925 491.2228326131699) rotate(0 155.5118754330631 -44.06169803936791)"><path d="M-0.94 -0.18 C50.59 -14.72, 258.21 -72.4, 310.29 -87.16 M0.77 -1.33 C52.58 -16.19, 260.91 -74.37, 312.61 -88.77" stroke="#e03131" stroke-width="4" fill="none"></path></g></g><mask></mask><g transform="translate(2759.5139018744976 378.0447718582491) rotate(0 428.975830078125 22.5)"><text x="428.975830078125" y="31.536" font-family="Virgil, Segoe UI Emoji" font-size="36px" fill="#e03131" text-anchor="middle" style="white-space: pre;" direction="ltr" dominant-baseline="alphabetic">Eingabefeld für ein Aufgaben Bezeichnung(Namen)</text></g><g transform="translate(1898.6785681694778 714.1231874005607) rotate(0 319.58990478515625 22.5)"><text x="319.58990478515625" y="31.536" font-family="Virgil, Segoe UI Emoji" font-size="36px" fill="#2f9e44" text-anchor="middle" style="white-space: pre;" direction="ltr" dominant-baseline="alphabetic">*onclick "Aufgabe wurde hinzugefügt"</text></g><g stroke-linecap="round"><g transform="translate(1938.3472553699803 726.2186082214175) rotate(0 155.51187543306332 -14.687245862693999)"><path d="M0.22 -0.33 C52 -5.11, 258.7 -24.97, 310.33 -29.81 M-1.12 -1.55 C51.07 -6.06, 260.43 -24.08, 312.67 -28.5" stroke="#e03131" stroke-width="4" fill="none"></path></g></g><mask></mask><g stroke-linecap="round"><g transform="translate(2531.8842466061765 657.1021664084383) rotate(0 78.61987939714322 2.591864590550358)"><path d="M-0.48 -0.86 C25.86 0.01, 132.08 4.28, 158.37 5.39 M1.47 1.3 C27.72 1.77, 132.17 2.96, 158.02 3.38" stroke="#e03131" stroke-width="4" fill="none"></path></g></g><mask></mask><g transform="translate(2736.8309900293207 632.911482961581) rotate(0 509.5438232421875 45)"><text x="509.5438232421875" y="31.536" font-family="Virgil, Segoe UI Emoji" font-size="36px" fill="#e03131" text-anchor="middle" style="white-space: pre;" direction="ltr" dominant-baseline="alphabetic">Ein Button um das vorherige Eingabefeld zu aktualisieren</text><text x="509.5438232421875" y="76.536" font-family="Virgil, Segoe UI Emoji" font-size="36px" fill="#e03131" text-anchor="middle" style="white-space: pre;" direction="ltr" dominant-baseline="alphabetic"> und auf der Startseite es zu aktualisieren</text></g><g stroke-linecap="round"><g transform="translate(2507.6934840618896 760.7767500304799) rotate(0 71.70826685481734 59.6128855826737)"><path d="M1.16 -0.02 C25.11 19.78, 120.58 99.05, 144.28 118.8 M0.32 -1.07 C24.13 18.89, 120.08 100.03, 143.78 120.12" stroke="#e03131" stroke-width="4" fill="none"></path></g></g><mask></mask><g transform="translate(2505.3766220547514 906.7852274280958) rotate(0 596.7178344726562 45)"><text x="596.7178344726562" y="31.536" font-family="Virgil, Segoe UI Emoji" font-size="36px" fill="#e03131" text-anchor="middle" style="white-space: pre;" direction="ltr" dominant-baseline="alphabetic">Sobald der obige Button gedrückt wird, </text><text x="596.7178344726562" y="76.536" font-family="Virgil, Segoe UI Emoji" font-size="36px" fill="#e03131" text-anchor="middle" style="white-space: pre;" direction="ltr" dominant-baseline="alphabetic">kommt ein Feedback Message heraus um denn User klar zu machen </text></g><g stroke-linecap="round" transform="translate(2499.0539090609127 885.1862503769298) rotate(0 603.9044495983944 74.3001709940836)"><path d="M32 0 C464.39 0.93, 895.73 2.42, 1175.81 0 M32 0 C419.66 -1.42, 807.65 -1.27, 1175.81 0 M1175.81 0 C1197.54 1.72, 1207.26 11.05, 1207.81 32 M1175.81 0 C1197.25 -1.62, 1209.29 10.71, 1207.81 32 M1207.81 32 C1208.34 52.63, 1209.19 73.19, 1207.81 116.6 M1207.81 32 C1208.04 64.24, 1207.31 95.34, 1207.81 116.6 M1207.81 116.6 C1206.8 137.29, 1195.35 150.4, 1175.81 148.6 M1207.81 116.6 C1209.15 135.97, 1197.39 147.95, 1175.81 148.6 M1175.81 148.6 C802.78 152.33, 429.15 153.3, 32 148.6 M1175.81 148.6 C760.14 148.78, 345.1 148.42, 32 148.6 M32 148.6 C11.53 147.21, 1.45 139.46, 0 116.6 M32 148.6 C12.58 147.91, 0.6 139.56, 0 116.6 M0 116.6 C-0.11 93.53, -1.73 69, 0 32 M0 116.6 C-0.19 88.27, 0.96 60.72, 0 32 M0 32 C-1.98 9.55, 8.86 -1.96, 32 0 M0 32 C0.01 12.96, 11.24 0.24, 32 0" stroke="#e03131" stroke-width="4" fill="none"></path></g><g stroke-linecap="round" transform="translate(2716.770534667201 627.7277537804785) rotate(0 536.5159702440674 56.15703976279656)"><path d="M28.08 0 C355.46 2.32, 682.8 1.04, 1044.95 0 M28.08 0 C338.56 -0.56, 648.98 -0.64, 1044.95 0 M1044.95 0 C1064.22 0.45, 1073.23 8.01, 1073.03 28.08 M1044.95 0 C1065.03 1.09, 1073.05 8.97, 1073.03 28.08 M1073.03 28.08 C1074.21 45.14, 1073.55 66.65, 1073.03 84.24 M1073.03 28.08 C1072.01 47.59, 1072.5 68.68, 1073.03 84.24 M1073.03 84.24 C1074.05 102.29, 1063.8 112, 1044.95 112.31 M1073.03 84.24 C1073.13 102.21, 1063.28 110.82, 1044.95 112.31 M1044.95 112.31 C687.04 111.84, 328.1 112.53, 28.08 112.31 M1044.95 112.31 C677.04 108.6, 308.71 108.33, 28.08 112.31 M28.08 112.31 C9.02 111.22, -1.6 102.8, 0 84.24 M28.08 112.31 C10.32 110.13, 1.5 104.96, 0 84.24 M0 84.24 C0.51 68.51, -0.61 53.72, 0 28.08 M0 84.24 C-0.79 67.01, -0.7 50.19, 0 28.08 M0 28.08 C-1.69 7.69, 9.07 1.49, 28.08 0 M0 28.08 C-0.64 10.81, 7.84 -0.98, 28.08 0" stroke="#e03131" stroke-width="4" fill="none"></path></g><g stroke-linecap="round" transform="translate(2746.14502639259 373.72502390647605) rotate(0 456.16820748569944 28.510510496061215)"><path d="M14.26 0 C235.73 0.73, 456.14 1, 898.08 0 M14.26 0 C191.43 2.31, 367.57 2.47, 898.08 0 M898.08 0 C906.5 1.05, 913.42 6.26, 912.34 14.26 M898.08 0 C907.17 -0.97, 913.21 6.71, 912.34 14.26 M912.34 14.26 C913.2 23.86, 910.64 27.9, 912.34 42.77 M912.34 14.26 C913.53 22.89, 912.78 31.42, 912.34 42.77 M912.34 42.77 C910.87 53.18, 907.63 55.42, 898.08 57.02 M912.34 42.77 C910.48 51.67, 909.37 58.46, 898.08 57.02 M898.08 57.02 C660.57 58.69, 421.67 59.14, 14.26 57.02 M898.08 57.02 C548.38 59.84, 199 60.32, 14.26 57.02 M14.26 57.02 C5.58 56.36, -1.04 54.09, 0 42.77 M14.26 57.02 C3.64 57.04, 0.67 54.25, 0 42.77 M0 42.77 C0.17 34.25, -0.27 26.28, 0 14.26 M0 42.77 C-0.92 32.2, -0.82 21.1, 0 14.26 M0 14.26 C0.49 3.35, 3.74 -0.97, 14.26 0 M0 14.26 C2.08 6.42, 4.4 -0.4, 14.26 0" stroke="#e03131" stroke-width="4" fill="none"></path></g><g stroke-linecap="round" transform="translate(1875.0639449387563 595.9194913226638) rotate(0 143.63111273831646 47.35945000112315)"><path d="M23.68 0 C94.15 -2.27, 164.03 -1.47, 263.58 0 M23.68 0 C96.6 0.91, 167.4 0.41, 263.58 0 M263.58 0 C277.98 0.83, 286.74 6.68, 287.26 23.68 M263.58 0 C280.12 0.19, 287.55 5.96, 287.26 23.68 M287.26 23.68 C288.07 38.77, 286.53 55.17, 287.26 71.04 M287.26 23.68 C287 36.24, 287.78 49.43, 287.26 71.04 M287.26 71.04 C286.7 88.23, 279.6 93.37, 263.58 94.72 M287.26 71.04 C286.92 87.45, 277.62 95, 263.58 94.72 M263.58 94.72 C176.16 94.31, 86.53 95.29, 23.68 94.72 M263.58 94.72 C210.08 94.86, 156.62 95.04, 23.68 94.72 M23.68 94.72 C6.31 95.11, 0.59 86.53, 0 71.04 M23.68 94.72 C10.09 95.78, -1.38 87.57, 0 71.04 M0 71.04 C1.22 52.57, -0.82 33.32, 0 23.68 M0 71.04 C0.42 60.58, 1.08 49.47, 0 23.68 M0 23.68 C-1.19 9.28, 8.83 -1.52, 23.68 0 M0 23.68 C1.37 9.38, 6.9 -0.47, 23.68 0" stroke="#1e1e1e" stroke-width="4" fill="none"></path></g><g transform="translate(1920.5363048820618 598.2486087700381) rotate(0 96.60597229003906 45)"><text x="96.60597229003906" y="31.536" font-family="Virgil, Segoe UI Emoji" font-size="36px" fill="#1e1e1e" text-anchor="middle" style="white-space: pre;" direction="ltr" dominant-baseline="alphabetic">Zurück zur</text><text x="96.60597229003906" y="76.536" font-family="Virgil, Segoe UI Emoji" font-size="36px" fill="#1e1e1e" text-anchor="middle" style="white-space: pre;" direction="ltr" dominant-baseline="alphabetic">Startseite</text></g><g mask="url(#mask-WFssuPhyXcGkkBL0rz1-m)" stroke-linecap="round"><g transform="translate(1874.4145427381104 660.5580122283118) rotate(0 -129.59322952755247 3.4558062711630555)"><path d="M0.99 -1.16 C-41.97 -0.28, -215.18 4.54, -258.72 5.94 M0.05 0.84 C-42.94 1.79, -216.43 6.26, -259.42 6.97" stroke="#f08c00" stroke-width="4" fill="none"></path></g><g transform="translate(1874.4145427381104 660.5580122283118) rotate(0 -129.59322952755247 3.4558062711630555)"><path d="M-236.12 -2.09 C-243.12 0.87, -247.9 0.36, -259.42 6.97 M-236.12 -2.09 C-243.47 0.43, -252.17 4.79, -259.42 6.97" stroke="#f08c00" stroke-width="4" fill="none"></path></g><g transform="translate(1874.4145427381104 660.5580122283118) rotate(0 -129.59322952755247 3.4558062711630555)"><path d="M-235.75 15.01 C-242.92 14.22, -247.78 9.97, -259.42 6.97 M-235.75 15.01 C-243.09 11.88, -251.91 10.6, -259.42 6.97" stroke="#f08c00" stroke-width="4" fill="none"></path></g></g><mask id="mask-WFssuPhyXcGkkBL0rz1-m"><rect x="0" y="0" fill="#fff" width="2233.6010017932153" height="767.4696247706379"></rect><rect x="1700.019341775011" y="641.5138184994757" fill="#000" width="89.60394287109375" height="45" opacity="1"></rect></mask><g transform="translate(1700.019341775011 641.5138184994757) rotate(0 45.18107955096298 21.9478392467081)"><text x="44.801971435546875" y="31.536" font-family="Virgil, Segoe UI Emoji" font-size="36px" fill="#f08c00" text-anchor="middle" style="white-space: pre;" direction="ltr" dominant-baseline="alphabetic">*click</text></g></svg>